<svg width="24" height="16" viewBox="0 0 24 16" fill="none" xmlns="http://www.w3.org/2000/svg">
<path d="M1.60028 8.88962C1.21832 8.52228 0.910709 8.21571 0.697656 8C0.910709 7.78429 1.21832 7.47772 1.60028 7.11038C2.37365 6.36658 3.44909 5.37621 4.65951 4.38719C5.87182 3.39662 7.20897 2.41614 8.50634 1.68569C9.81712 0.947701 11.0269 0.5 12 0.5C12.9731 0.5 14.1829 0.947701 15.4937 1.68569C16.791 2.41614 18.1282 3.39662 19.3405 4.38719C20.5509 5.37621 21.6263 6.36658 22.3997 7.11038C22.7817 7.47772 23.0893 7.78429 23.3023 8C23.0893 8.21571 22.7817 8.52228 22.3997 8.88962C21.6263 9.63342 20.5509 10.6238 19.3405 11.6128C18.1282 12.6034 16.791 13.5839 15.4937 14.3143C14.1829 15.0523 12.9731 15.5 12 15.5C11.0269 15.5 9.81712 15.0523 8.50634 14.3143C7.20897 13.5839 5.87182 12.6034 4.65951 11.6128C3.44909 10.6238 2.37365 9.63342 1.60028 8.88962Z" fill="#01B4BC" stroke="black" stroke-linecap="round" stroke-linejoin="round"/>
<circle cx="12" cy="8" r="5" fill="black"/>
</svg>
