<svg width="31" height="30" viewBox="0 0 31 30" fill="none" xmlns="http://www.w3.org/2000/svg">
<mask id="path-1-inside-1" fill="white">
<path d="M30.3151 15C30.3151 16.9698 29.9247 18.9204 29.1663 20.7403C28.4079 22.5601 27.2962 24.2137 25.8948 25.6066C24.4934 26.9995 22.8297 28.1044 20.9987 28.8582C19.1677 29.612 17.2052 30 15.2233 30C13.2415 30 11.279 29.612 9.44798 28.8582C7.61696 28.1044 5.95326 26.9995 4.55186 25.6066C3.15046 24.2137 2.03881 22.5601 1.28038 20.7402C0.521951 18.9204 0.131592 16.9698 0.131592 15L15.2233 15H30.3151Z"/>
</mask>
<path d="M30.3151 15C30.3151 16.9698 29.9247 18.9204 29.1663 20.7403C28.4079 22.5601 27.2962 24.2137 25.8948 25.6066C24.4934 26.9995 22.8297 28.1044 20.9987 28.8582C19.1677 29.612 17.2052 30 15.2233 30C13.2415 30 11.279 29.612 9.44798 28.8582C7.61696 28.1044 5.95326 26.9995 4.55186 25.6066C3.15046 24.2137 2.03881 22.5601 1.28038 20.7402C0.521951 18.9204 0.131592 16.9698 0.131592 15L15.2233 15H30.3151Z" fill="#FA5457" stroke="black" stroke-width="2" mask="url(#path-1-inside-1)"/>
<mask id="path-2-inside-2" fill="white">
<path d="M0.131596 15C0.131596 13.0302 0.521955 11.0796 1.28039 9.25975C2.03882 7.43987 3.15047 5.78628 4.55187 4.3934C5.95327 3.00052 7.61697 1.89563 9.44798 1.14181C11.279 0.387987 13.2415 0 15.2233 0C17.2052 0 19.1677 0.387987 20.9987 1.14181C22.8297 1.89563 24.4934 3.00052 25.8948 4.3934C27.2962 5.78628 28.4079 7.43987 29.1663 9.25975C29.9247 11.0796 30.3151 13.0302 30.3151 15L15.2233 15H0.131596Z"/>
</mask>
<path d="M0.131596 15C0.131596 13.0302 0.521955 11.0796 1.28039 9.25975C2.03882 7.43987 3.15047 5.78628 4.55187 4.3934C5.95327 3.00052 7.61697 1.89563 9.44798 1.14181C11.279 0.387987 13.2415 0 15.2233 0C17.2052 0 19.1677 0.387987 20.9987 1.14181C22.8297 1.89563 24.4934 3.00052 25.8948 4.3934C27.2962 5.78628 28.4079 7.43987 29.1663 9.25975C29.9247 11.0796 30.3151 13.0302 30.3151 15L15.2233 15H0.131596Z" fill="white" stroke="black" stroke-width="2" mask="url(#path-2-inside-2)"/>
<path fill-rule="evenodd" clip-rule="evenodd" d="M0.131592 15C0.131592 12.8667 0.576934 10.8374 1.37972 9H28.8835C29.6862 10.8374 30.1316 12.8667 30.1316 15C30.1316 17.1333 29.6862 19.1626 28.8835 21H28.1438H2.14381H1.37972C0.576934 19.1626 0.131592 17.1333 0.131592 15Z" fill="#01B4BC"/>
<path d="M29.8151 15C29.8151 23.0053 23.285 29.5 15.2233 29.5C7.16166 29.5 0.631592 23.0053 0.631592 15C0.631592 6.99474 7.16166 0.5 15.2233 0.5C23.285 0.5 29.8151 6.99474 29.8151 15Z" stroke="black"/>
</svg>
