<svg width="254" height="387" viewBox="0 0 254 387" fill="none" xmlns="http://www.w3.org/2000/svg">
<path d="M102 2H103.71C103.71 1.05569 102.945 0.290169 102 0.290169V2ZM77.0003 2V0.290169C76.056 0.290169 75.2905 1.05569 75.2905 2L77.0003 2ZM27.0003 2H28.7101C28.7101 1.05569 27.9446 0.290169 27.0003 0.290169V2ZM2 2V0.290169C1.05569 0.290169 0.290169 1.05569 0.290169 2L2 2ZM2 384.319H0.290169C0.290169 385.263 1.05568 386.029 1.99999 386.029L2 384.319ZM27.0003 384.319L27.0003 386.029C27.4537 386.029 27.8887 385.849 28.2093 385.528C28.53 385.207 28.7101 384.772 28.7101 384.319H27.0003ZM77.0003 384.319H75.2905C75.2905 385.263 76.056 386.029 77.0003 386.029V384.319ZM102 384.319V386.029C102.945 386.029 103.71 385.263 103.71 384.319H102ZM152 384.319H150.291C150.291 385.263 151.056 386.029 152 386.029V384.319ZM177 384.319V386.029C177.944 386.029 178.71 385.263 178.71 384.319H177ZM227 384.319H225.29C225.29 384.772 225.47 385.207 225.791 385.528C226.112 385.849 226.547 386.029 227 386.029L227 384.319ZM252 384.319L252 386.029C252.944 386.029 253.71 385.263 253.71 384.319H252ZM252 2H253.71C253.71 1.05569 252.944 0.290169 252 0.290169V2ZM227 2V0.290169C226.056 0.290169 225.29 1.05569 225.29 2L227 2ZM177 2H178.71C178.71 1.05569 177.944 0.290169 177 0.290169V2ZM152 2V0.290169C151.056 0.290169 150.291 1.05569 150.291 2L152 2ZM127 29.1979C141.783 29.1979 153.71 16.9898 153.71 2.00015H150.291C150.291 15.1637 139.832 25.7782 127 25.7782V29.1979ZM100.291 2.00015C100.291 16.9898 112.218 29.1979 127 29.1979V25.7782C114.169 25.7782 103.71 15.1637 103.71 2.00015H100.291ZM100.291 2V2.00015H103.71V2H100.291ZM77.0003 3.70983H102V0.290169H77.0003V3.70983ZM78.7101 2.00015V2H75.2905V2.00015H78.7101ZM52.0003 29.1979C66.7827 29.1979 78.7101 16.9898 78.7101 2.00015H75.2905C75.2905 15.1637 64.8321 25.7782 52.0003 25.7782V29.1979ZM25.2904 2.00015C25.2904 16.9898 37.2178 29.1979 52.0003 29.1979V25.7782C39.1685 25.7782 28.7101 15.1637 28.7101 2.00015H25.2904ZM25.2904 2V2.00015H28.7101V2H25.2904ZM2 3.70983H27.0003V0.290169H2V3.70983ZM3.70983 384.319V2H0.290169V384.319H3.70983ZM27.0003 382.609L2.00001 382.609L1.99999 386.029L27.0003 386.029L27.0003 382.609ZM52.0003 357.121C37.2178 357.121 25.2904 369.329 25.2904 384.319H28.7101C28.7101 371.155 39.1685 360.541 52.0003 360.541V357.121ZM78.7101 384.319C78.7101 369.329 66.7827 357.121 52.0003 357.121V360.541C64.8321 360.541 75.2905 371.155 75.2905 384.319H78.7101ZM102 382.609H77.0003V386.029H102V382.609ZM103.71 384.319C103.71 371.155 114.169 360.541 127 360.541V357.121C112.218 357.121 100.291 369.329 100.291 384.319H103.71ZM127 360.541C139.832 360.541 150.291 371.155 150.291 384.319H153.71C153.71 369.329 141.783 357.121 127 357.121V360.541ZM177 382.609H152V386.029H177V382.609ZM202 357.121C187.218 357.121 175.29 369.329 175.29 384.319H178.71C178.71 371.155 189.168 360.541 202 360.541V357.121ZM228.71 384.319C228.71 369.329 216.783 357.121 202 357.121V360.541C214.832 360.541 225.29 371.155 225.29 384.319H228.71ZM252 382.609L227 382.609L227 386.029L252 386.029L252 382.609ZM250.29 2V384.319H253.71V2H250.29ZM227 3.70983H252V0.290169H227V3.70983ZM228.71 2.00015V2H225.29V2.00015H228.71ZM202 29.1979C216.783 29.1979 228.71 16.9898 228.71 2.00015H225.29C225.29 15.1637 214.832 25.7782 202 25.7782V29.1979ZM175.29 2.00015C175.29 16.9898 187.218 29.1979 202 29.1979V25.7782C189.168 25.7782 178.71 15.1637 178.71 2.00015H175.29ZM175.29 2V2.00015H178.71V2H175.29ZM152 3.70983H177V0.290169H152V3.70983ZM153.71 2.00015V2H150.291V2.00015H153.71Z" fill="black"/>
</svg>
