<svg width="20" height="23" viewBox="0 0 20 23" fill="none" xmlns="http://www.w3.org/2000/svg">
<path d="M19.0607 12.5367C19.6464 11.9509 19.6464 11.0012 19.0607 10.4154L9.51472 0.869472C8.92893 0.283685 7.97919 0.283685 7.3934 0.869472C6.80761 1.45526 6.80761 2.40501 7.3934 2.99079L15.8787 11.4761L7.3934 19.9614C6.80761 20.5471 6.80761 21.4969 7.3934 22.0827C7.97918 22.6685 8.92893 22.6685 9.51472 22.0827L19.0607 12.5367ZM15 12.9761L18 12.9761L18 9.97607L15 9.97607L15 12.9761Z" fill="black"/>
<path d="M13.0607 12.5367C13.6464 11.9509 13.6464 11.0012 13.0607 10.4154L3.51472 0.869472C2.92893 0.283685 1.97919 0.283685 1.3934 0.869472C0.807612 1.45526 0.807612 2.40501 1.3934 2.99079L9.87868 11.4761L1.3934 19.9614C0.807611 20.5471 0.807611 21.4969 1.3934 22.0827C1.97918 22.6685 2.92893 22.6685 3.51472 22.0827L13.0607 12.5367ZM9 12.9761L12 12.9761L12 9.97607L9 9.97607L9 12.9761Z" fill="black"/>
</svg>
