<svg width="202" height="155" viewBox="0 0 202 155" fill="none" xmlns="http://www.w3.org/2000/svg">
<path fill-rule="evenodd" clip-rule="evenodd" d="M101 21.3905C112.046 21.3905 121 12.2614 121 1.00011C121 1.00008 121 1.00004 121 1H141V1.00011C141 12.2614 149.954 21.3905 161 21.3905C172.046 21.3905 181 12.2614 181 1.00011V1H201V153.928H1V1H21.0002V1.00011C21.0002 12.2614 29.9545 21.3905 41.0002 21.3905C52.0459 21.3905 61.0002 12.2614 61.0002 1.00011V1H81.0004C81.0004 1.00004 81.0004 1.00008 81.0004 1.00011C81.0004 12.2614 89.9547 21.3905 101 21.3905Z" fill="#FEA405"/>
<path d="M121 1V0C120.448 0 120 0.447715 120 1L121 1ZM141 1H142C142 0.447715 141.552 0 141 0V1ZM181 1V0C180.448 0 180 0.447715 180 1L181 1ZM201 1H202C202 0.447715 201.552 0 201 0V1ZM201 153.928V154.928C201.552 154.928 202 154.48 202 153.928H201ZM1 153.928H0C0 154.48 0.447715 154.928 1 154.928L1 153.928ZM1 1V0C0.447715 0 0 0.447715 0 1L1 1ZM21.0002 1H22.0002C22.0002 0.447715 21.5525 0 21.0002 0V1ZM61.0002 1V0C60.4479 0 60.0002 0.447715 60.0002 1L61.0002 1ZM81.0004 1H82.0004C82.0004 0.447715 81.5527 0 81.0004 0V1ZM120 1.00011C120 11.7274 111.476 20.3905 101 20.3905V22.3905C112.616 22.3905 122 12.7954 122 1.00011H120ZM120 1C120 1 120 1 120 1C120 1 120 1 120 1C120 1 120 1 120 1C120 1 120 1 120 1C120 1 120 1 120 1C120 1 120 1 120 1C120 1 120 1 120 1C120 1 120 1 120 1C120 1 120 1 120 1C120 1 120 1 120 1C120 1 120 1 120 1C120 1 120 1 120 1C120 1 120 1 120 1C120 1 120 1 120 1C120 1 120 1 120 1C120 1 120 1 120 1C120 1 120 1 120 1C120 1 120 1 120 1C120 1 120 1 120 1C120 1 120 1 120 1C120 1 120 1 120 1C120 1 120 1 120 1C120 1 120 1.00001 120 1.00001C120 1.00001 120 1.00001 120 1.00001C120 1.00001 120 1.00001 120 1.00001C120 1.00001 120 1.00001 120 1.00001C120 1.00001 120 1.00001 120 1.00001C120 1.00001 120 1.00001 120 1.00001C120 1.00001 120 1.00001 120 1.00001C120 1.00001 120 1.00001 120 1.00001C120 1.00001 120 1.00001 120 1.00001C120 1.00001 120 1.00001 120 1.00001C120 1.00001 120 1.00001 120 1.00001C120 1.00001 120 1.00001 120 1.00001C120 1.00001 120 1.00001 120 1.00001C120 1.00001 120 1.00001 120 1.00001C120 1.00001 120 1.00001 120 1.00001C120 1.00001 120 1.00001 120 1.00001C120 1.00001 120 1.00001 120 1.00001C120 1.00001 120 1.00001 120 1.00001C120 1.00001 120 1.00001 120 1.00001C120 1.00001 120 1.00001 120 1.00001C120 1.00001 120 1.00001 120 1.00001C120 1.00001 120 1.00001 120 1.00001C120 1.00001 120 1.00001 120 1.00001C120 1.00001 120 1.00001 120 1.00001C120 1.00001 120 1.00001 120 1.00001C120 1.00001 120 1.00001 120 1.00001C120 1.00001 120 1.00001 120 1.00001C120 1.00001 120 1.00001 120 1.00001C120 1.00001 120 1.00001 120 1.00001C120 1.00001 120 1.00001 120 1.00001C120 1.00001 120 1.00001 120 1.00001C120 1.00001 120 1.00001 120 1.00001C120 1.00001 120 1.00001 120 1.00001C120 1.00001 120 1.00001 120 1.00001C120 1.00001 120 1.00001 120 1.00001C120 1.00001 120 1.00001 120 1.00001C120 1.00001 120 1.00001 120 1.00001C120 1.00001 120 1.00001 120 1.00001C120 1.00001 120 1.00001 120 1.00001C120 1.00001 120 1.00001 120 1.00001C120 1.00001 120 1.00001 120 1.00001C120 1.00001 120 1.00001 120 1.00001C120 1.00001 120 1.00001 120 1.00001C120 1.00001 120 1.00001 120 1.00001C120 1.00001 120 1.00001 120 1.00001C120 1.00002 120 1.00002 120 1.00002C120 1.00002 120 1.00002 120 1.00002C120 1.00002 120 1.00002 120 1.00002C120 1.00002 120 1.00002 120 1.00002C120 1.00002 120 1.00002 120 1.00002C120 1.00002 120 1.00002 120 1.00002C120 1.00002 120 1.00002 120 1.00002C120 1.00002 120 1.00002 120 1.00002C120 1.00002 120 1.00002 120 1.00002C120 1.00002 120 1.00002 120 1.00002C120 1.00002 120 1.00002 120 1.00002C120 1.00002 120 1.00002 120 1.00002C120 1.00002 120 1.00002 120 1.00002C120 1.00002 120 1.00002 120 1.00002C120 1.00002 120 1.00002 120 1.00002C120 1.00002 120 1.00002 120 1.00002C120 1.00002 120 1.00002 120 1.00002C120 1.00002 120 1.00002 120 1.00002C120 1.00002 120 1.00002 120 1.00002C120 1.00002 120 1.00002 120 1.00002C120 1.00002 120 1.00002 120 1.00002C120 1.00002 120 1.00002 120 1.00002C120 1.00002 120 1.00002 120 1.00002C120 1.00002 120 1.00002 120 1.00002C120 1.00002 120 1.00002 120 1.00002C120 1.00002 120 1.00002 120 1.00002C120 1.00002 120 1.00002 120 1.00002C120 1.00002 120 1.00002 120 1.00002C120 1.00002 120 1.00002 120 1.00002C120 1.00002 120 1.00002 120 1.00002C120 1.00002 120 1.00002 120 1.00002C120 1.00002 120 1.00002 120 1.00002C120 1.00002 120 1.00002 120 1.00002C120 1.00002 120 1.00002 120 1.00002C120 1.00002 120 1.00002 120 1.00002C120 1.00002 120 1.00002 120 1.00002C120 1.00002 120 1.00002 120 1.00002C120 1.00002 120 1.00002 120 1.00002C120 1.00002 120 1.00002 120 1.00002C120 1.00002 120 1.00002 120 1.00002C120 1.00002 120 1.00002 120 1.00002C120 1.00002 120 1.00002 120 1.00002C120 1.00002 120 1.00002 120 1.00002C120 1.00002 120 1.00002 120 1.00002C120 1.00002 120 1.00002 120 1.00003C120 1.00003 120 1.00003 120 1.00003C120 1.00003 120 1.00003 120 1.00003C120 1.00003 120 1.00003 120 1.00003C120 1.00003 120 1.00003 120 1.00003C120 1.00003 120 1.00003 120 1.00003C120 1.00003 120 1.00003 120 1.00003C120 1.00003 120 1.00003 120 1.00003C120 1.00003 120 1.00003 120 1.00003C120 1.00003 120 1.00003 120 1.00003C120 1.00003 120 1.00003 120 1.00003C120 1.00003 120 1.00003 120 1.00003C120 1.00003 120 1.00003 120 1.00003C120 1.00003 120 1.00003 120 1.00003C120 1.00003 120 1.00003 120 1.00003C120 1.00003 120 1.00003 120 1.00003C120 1.00003 120 1.00003 120 1.00003C120 1.00003 120 1.00003 120 1.00003C120 1.00003 120 1.00003 120 1.00003C120 1.00003 120 1.00003 120 1.00003C120 1.00003 120 1.00003 120 1.00003C120 1.00003 120 1.00003 120 1.00003C120 1.00003 120 1.00003 120 1.00003C120 1.00003 120 1.00003 120 1.00003C120 1.00003 120 1.00003 120 1.00003C120 1.00003 120 1.00003 120 1.00003C120 1.00003 120 1.00003 120 1.00003C120 1.00003 120 1.00003 120 1.00003C120 1.00003 120 1.00003 120 1.00003C120 1.00003 120 1.00003 120 1.00003C120 1.00003 120 1.00003 120 1.00003C120 1.00003 120 1.00003 120 1.00003C120 1.00003 120 1.00003 120 1.00003C120 1.00003 120 1.00003 120 1.00003C120 1.00003 120 1.00003 120 1.00003C120 1.00003 120 1.00003 120 1.00003C120 1.00003 120 1.00003 120 1.00003C120 1.00003 120 1.00003 120 1.00003C120 1.00003 120 1.00003 120 1.00003C120 1.00003 120 1.00003 120 1.00003C120 1.00003 120 1.00003 120 1.00003C120 1.00003 120 1.00003 120 1.00003C120 1.00003 120 1.00003 120 1.00003C120 1.00003 120 1.00003 120 1.00003C120 1.00003 120 1.00003 120 1.00003C120 1.00003 120 1.00004 120 1.00004C120 1.00004 120 1.00004 120 1.00004C120 1.00004 120 1.00004 120 1.00004C120 1.00004 120 1.00004 120 1.00004C120 1.00004 120 1.00004 120 1.00004C120 1.00004 120 1.00004 120 1.00004C120 1.00004 120 1.00004 120 1.00004C120 1.00004 120 1.00004 120 1.00004C120 1.00004 120 1.00004 120 1.00004C120 1.00004 120 1.00004 120 1.00004C120 1.00004 120 1.00004 120 1.00004C120 1.00004 120 1.00004 120 1.00004C120 1.00004 120 1.00004 120 1.00004C120 1.00004 120 1.00004 120 1.00004C120 1.00004 120 1.00004 120 1.00004C120 1.00004 120 1.00004 120 1.00004C120 1.00004 120 1.00004 120 1.00004C120 1.00004 120 1.00004 120 1.00004C120 1.00004 120 1.00004 120 1.00004C120 1.00004 120 1.00004 120 1.00004C120 1.00004 120 1.00004 120 1.00004C120 1.00004 120 1.00004 120 1.00004C120 1.00004 120 1.00004 120 1.00004C120 1.00004 120 1.00004 120 1.00004C120 1.00004 120 1.00004 120 1.00004C120 1.00004 120 1.00004 120 1.00004C120 1.00004 120 1.00004 120 1.00004C120 1.00004 120 1.00004 120 1.00004C120 1.00004 120 1.00004 120 1.00004C120 1.00004 120 1.00004 120 1.00004C120 1.00004 120 1.00004 120 1.00004C120 1.00004 120 1.00004 120 1.00004C120 1.00004 120 1.00004 120 1.00004C120 1.00004 120 1.00004 120 1.00004C120 1.00004 120 1.00004 120 1.00004C120 1.00004 120 1.00004 120 1.00004C120 1.00004 120 1.00004 120 1.00004C120 1.00004 120 1.00004 120 1.00004C120 1.00004 120 1.00004 120 1.00004C120 1.00004 120 1.00004 120 1.00004C120 1.00004 120 1.00004 120 1.00004C120 1.00004 120 1.00004 120 1.00004C120 1.00004 120 1.00004 120 1.00004C120 1.00004 120 1.00004 120 1.00004C120 1.00004 120 1.00004 120 1.00004C120 1.00005 120 1.00005 120 1.00005C120 1.00005 120 1.00005 120 1.00005C120 1.00005 120 1.00005 120 1.00005C120 1.00005 120 1.00005 120 1.00005C120 1.00005 120 1.00005 120 1.00005C120 1.00005 120 1.00005 120 1.00005C120 1.00005 120 1.00005 120 1.00005C120 1.00005 120 1.00005 120 1.00005C120 1.00005 120 1.00005 120 1.00005C120 1.00005 120 1.00005 120 1.00005C120 1.00005 120 1.00005 120 1.00005C120 1.00005 120 1.00005 120 1.00005C120 1.00005 120 1.00005 120 1.00005C120 1.00005 120 1.00005 120 1.00005C120 1.00005 120 1.00005 120 1.00005C120 1.00005 120 1.00005 120 1.00005C120 1.00005 120 1.00005 120 1.00005C120 1.00005 120 1.00005 120 1.00005C120 1.00005 120 1.00005 120 1.00005C120 1.00005 120 1.00005 120 1.00005C120 1.00005 120 1.00005 120 1.00005C120 1.00005 120 1.00005 120 1.00005C120 1.00005 120 1.00005 120 1.00005C120 1.00005 120 1.00005 120 1.00005C120 1.00005 120 1.00005 120 1.00005C120 1.00005 120 1.00005 120 1.00005C120 1.00005 120 1.00005 120 1.00005C120 1.00005 120 1.00005 120 1.00005C120 1.00005 120 1.00005 120 1.00005C120 1.00005 120 1.00005 120 1.00005C120 1.00005 120 1.00005 120 1.00005C120 1.00005 120 1.00005 120 1.00005C120 1.00005 120 1.00005 120 1.00005C120 1.00005 120 1.00005 120 1.00005C120 1.00005 120 1.00005 120 1.00005C120 1.00005 120 1.00005 120 1.00005C120 1.00005 120 1.00005 120 1.00005C120 1.00005 120 1.00005 120 1.00005C120 1.00005 120 1.00005 120 1.00005C120 1.00005 120 1.00005 120 1.00005C120 1.00005 120 1.00005 120 1.00005C120 1.00005 120 1.00005 120 1.00005C120 1.00005 120 1.00005 120 1.00005C120 1.00005 120 1.00005 120 1.00005C120 1.00005 120 1.00005 120 1.00005C120 1.00006 120 1.00006 120 1.00006C120 1.00006 120 1.00006 120 1.00006C120 1.00006 120 1.00006 120 1.00006C120 1.00006 120 1.00006 120 1.00006C120 1.00006 120 1.00006 120 1.00006C120 1.00006 120 1.00006 120 1.00006C120 1.00006 120 1.00006 120 1.00006C120 1.00006 120 1.00006 120 1.00006C120 1.00006 120 1.00006 120 1.00006C120 1.00006 120 1.00006 120 1.00006C120 1.00006 120 1.00006 120 1.00006C120 1.00006 120 1.00006 120 1.00006C120 1.00006 120 1.00006 120 1.00006C120 1.00006 120 1.00006 120 1.00006C120 1.00006 120 1.00006 120 1.00006C120 1.00006 120 1.00006 120 1.00006C120 1.00006 120 1.00006 120 1.00006C120 1.00006 120 1.00006 120 1.00006C120 1.00006 120 1.00006 120 1.00006C120 1.00006 120 1.00006 120 1.00006C120 1.00006 120 1.00006 120 1.00006C120 1.00006 120 1.00006 120 1.00006C120 1.00006 120 1.00006 120 1.00006C120 1.00006 120 1.00006 120 1.00006C120 1.00006 120 1.00006 120 1.00006C120 1.00006 120 1.00006 120 1.00006C120 1.00006 120 1.00006 120 1.00006C120 1.00006 120 1.00006 120 1.00006C120 1.00006 120 1.00006 120 1.00006C120 1.00006 120 1.00006 120 1.00006C120 1.00006 120 1.00006 120 1.00006C120 1.00006 120 1.00006 120 1.00006C120 1.00006 120 1.00006 120 1.00006C120 1.00006 120 1.00006 120 1.00006C120 1.00006 120 1.00006 120 1.00006C120 1.00006 120 1.00006 120 1.00006C120 1.00006 120 1.00006 120 1.00006C120 1.00006 120 1.00006 120 1.00006C120 1.00006 120 1.00006 120 1.00006C120 1.00006 120 1.00006 120 1.00006C120 1.00006 120 1.00006 120 1.00006C120 1.00006 120 1.00006 120 1.00006C120 1.00006 120 1.00006 120 1.00006C120 1.00006 120 1.00006 120 1.00006C120 1.00006 120 1.00006 120 1.00007C120 1.00007 120 1.00007 120 1.00007C120 1.00007 120 1.00007 120 1.00007C120 1.00007 120 1.00007 120 1.00007C120 1.00007 120 1.00007 120 1.00007C120 1.00007 120 1.00007 120 1.00007C120 1.00007 120 1.00007 120 1.00007C120 1.00007 120 1.00007 120 1.00007C120 1.00007 120 1.00007 120 1.00007C120 1.00007 120 1.00007 120 1.00007C120 1.00007 120 1.00007 120 1.00007C120 1.00007 120 1.00007 120 1.00007C120 1.00007 120 1.00007 120 1.00007C120 1.00007 120 1.00007 120 1.00007C120 1.00007 120 1.00007 120 1.00007C120 1.00007 120 1.00007 120 1.00007C120 1.00007 120 1.00007 120 1.00007C120 1.00007 120 1.00007 120 1.00007C120 1.00007 120 1.00007 120 1.00007C120 1.00007 120 1.00007 120 1.00007C120 1.00007 120 1.00007 120 1.00007C120 1.00007 120 1.00007 120 1.00007C120 1.00007 120 1.00007 120 1.00007C120 1.00007 120 1.00007 120 1.00007C120 1.00007 120 1.00007 120 1.00007C120 1.00007 120 1.00007 120 1.00007C120 1.00007 120 1.00007 120 1.00007C120 1.00007 120 1.00007 120 1.00007C120 1.00007 120 1.00007 120 1.00007C120 1.00007 120 1.00007 120 1.00007C120 1.00007 120 1.00007 120 1.00007C120 1.00007 120 1.00007 120 1.00007C120 1.00007 120 1.00007 120 1.00007C120 1.00007 120 1.00007 120 1.00007C120 1.00007 120 1.00007 120 1.00007C120 1.00007 120 1.00007 120 1.00007C120 1.00007 120 1.00007 120 1.00007C120 1.00007 120 1.00007 120 1.00007C120 1.00007 120 1.00007 120 1.00007C120 1.00007 120 1.00007 120 1.00007C120 1.00007 120 1.00007 120 1.00007C120 1.00007 120 1.00007 120 1.00007C120 1.00007 120 1.00007 120 1.00007C120 1.00007 120 1.00007 120 1.00007C120 1.00007 120 1.00007 120 1.00007C120 1.00007 120 1.00008 120 1.00008C120 1.00008 120 1.00008 120 1.00008C120 1.00008 120 1.00008 120 1.00008C120 1.00008 120 1.00008 120 1.00008C120 1.00008 120 1.00008 120 1.00008C120 1.00008 120 1.00008 120 1.00008C120 1.00008 120 1.00008 120 1.00008C120 1.00008 120 1.00008 120 1.00008C120 1.00008 120 1.00008 120 1.00008C120 1.00008 120 1.00008 120 1.00008C120 1.00008 120 1.00008 120 1.00008C120 1.00008 120 1.00008 120 1.00008C120 1.00008 120 1.00008 120 1.00008C120 1.00008 120 1.00008 120 1.00008C120 1.00008 120 1.00008 120 1.00008C120 1.00008 120 1.00008 120 1.00008C120 1.00008 120 1.00008 120 1.00008C120 1.00008 120 1.00008 120 1.00008C120 1.00008 120 1.00008 120 1.00008C120 1.00008 120 1.00008 120 1.00008C120 1.00008 120 1.00008 120 1.00008C120 1.00008 120 1.00008 120 1.00008C120 1.00008 120 1.00008 120 1.00008C120 1.00008 120 1.00008 120 1.00008C120 1.00008 120 1.00008 120 1.00008C120 1.00008 120 1.00008 120 1.00008C120 1.00008 120 1.00008 120 1.00008C120 1.00008 120 1.00008 120 1.00008C120 1.00008 120 1.00008 120 1.00008C120 1.00008 120 1.00008 120 1.00008C120 1.00008 120 1.00008 120 1.00008C120 1.00008 120 1.00008 120 1.00008C120 1.00008 120 1.00008 120 1.00008C120 1.00008 120 1.00008 120 1.00008C120 1.00008 120 1.00008 120 1.00008C120 1.00008 120 1.00008 120 1.00008C120 1.00008 120 1.00008 120 1.00008C120 1.00008 120 1.00008 120 1.00008C120 1.00008 120 1.00008 120 1.00008C120 1.00008 120 1.00008 120 1.00008C120 1.00008 120 1.00008 120 1.00008C120 1.00008 120 1.00008 120 1.00008C120 1.00008 120 1.00008 120 1.00008C120 1.00008 120 1.00008 120 1.00008C120 1.00008 120 1.00008 120 1.00008C120 1.00009 120 1.00009 120 1.00009C120 1.00009 120 1.00009 120 1.00009C120 1.00009 120 1.00009 120 1.00009C120 1.00009 120 1.00009 120 1.00009C120 1.00009 120 1.00009 120 1.00009C120 1.00009 120 1.00009 120 1.00009C120 1.00009 120 1.00009 120 1.00009C120 1.00009 120 1.00009 120 1.00009C120 1.00009 120 1.00009 120 1.00009C120 1.00009 120 1.00009 120 1.00009C120 1.00009 120 1.00009 120 1.00009C120 1.00009 120 1.00009 120 1.00009C120 1.00009 120 1.00009 120 1.00009C120 1.00009 120 1.00009 120 1.00009C120 1.00009 120 1.00009 120 1.00009C120 1.00009 120 1.00009 120 1.00009C120 1.00009 120 1.00009 120 1.00009C120 1.00009 120 1.00009 120 1.00009C120 1.00009 120 1.00009 120 1.00009C120 1.00009 120 1.00009 120 1.00009C120 1.00009 120 1.00009 120 1.00009C120 1.00009 120 1.00009 120 1.00009C120 1.00009 120 1.00009 120 1.00009C120 1.00009 120 1.00009 120 1.00009C120 1.00009 120 1.00009 120 1.00009C120 1.00009 120 1.00009 120 1.00009C120 1.00009 120 1.00009 120 1.00009C120 1.00009 120 1.00009 120 1.00009C120 1.00009 120 1.00009 120 1.00009C120 1.00009 120 1.00009 120 1.00009C120 1.00009 120 1.00009 120 1.00009C120 1.00009 120 1.00009 120 1.00009C120 1.00009 120 1.00009 120 1.00009C120 1.00009 120 1.00009 120 1.00009C120 1.00009 120 1.00009 120 1.00009C120 1.00009 120 1.00009 120 1.00009C120 1.00009 120 1.00009 120 1.00009C120 1.00009 120 1.00009 120 1.00009C120 1.00009 120 1.00009 120 1.00009C120 1.00009 120 1.00009 120 1.00009C120 1.00009 120 1.00009 120 1.00009C120 1.00009 120 1.00009 120 1.00009C120 1.00009 120 1.00009 120 1.00009C120 1.00009 120 1.00009 120 1.00009C120 1.00009 120 1.00009 120 1.00009C120 1.0001 120 1.0001 120 1.0001C120 1.0001 120 1.0001 120 1.0001C120 1.0001 120 1.0001 120 1.0001C120 1.0001 120 1.0001 120 1.0001C120 1.0001 120 1.0001 120 1.0001C120 1.0001 120 1.0001 120 1.0001C120 1.0001 120 1.0001 120 1.0001C120 1.0001 120 1.0001 120 1.0001C120 1.0001 120 1.0001 120 1.0001C120 1.0001 120 1.0001 120 1.0001C120 1.0001 120 1.0001 120 1.0001C120 1.0001 120 1.0001 120 1.0001C120 1.0001 120 1.0001 120 1.0001C120 1.0001 120 1.0001 120 1.0001C120 1.0001 120 1.0001 120 1.0001C120 1.0001 120 1.0001 120 1.0001C120 1.0001 120 1.0001 120 1.0001C120 1.0001 120 1.0001 120 1.0001C120 1.0001 120 1.0001 120 1.0001C120 1.0001 120 1.0001 120 1.0001C120 1.0001 120 1.0001 120 1.0001C120 1.0001 120 1.0001 120 1.0001C120 1.0001 120 1.0001 120 1.0001C120 1.0001 120 1.0001 120 1.0001C120 1.0001 120 1.0001 120 1.0001C120 1.0001 120 1.0001 120 1.0001C120 1.0001 120 1.0001 120 1.0001C120 1.0001 120 1.0001 120 1.0001C120 1.0001 120 1.0001 120 1.0001C120 1.0001 120 1.0001 120 1.0001C120 1.0001 120 1.0001 120 1.0001C120 1.0001 120 1.0001 120 1.0001C120 1.0001 120 1.0001 120 1.0001C120 1.0001 120 1.0001 120 1.0001C120 1.0001 120 1.0001 120 1.0001C120 1.0001 120 1.0001 120 1.0001C120 1.0001 120 1.0001 120 1.0001C120 1.0001 120 1.0001 120 1.0001C120 1.0001 120 1.0001 120 1.0001C120 1.0001 120 1.0001 120 1.0001C120 1.0001 120 1.0001 120 1.0001C120 1.0001 120 1.0001 120 1.0001C120 1.0001 120 1.0001 120 1.0001C120 1.0001 120 1.0001 120 1.0001C120 1.0001 120 1.0001 120 1.00011C120 1.00011 120 1.00011 120 1.00011C120 1.00011 120 1.00011 120 1.00011C120 1.00011 120 1.00011 120 1.00011C120 1.00011 120 1.00011 120 1.00011C120 1.00011 120 1.00011 120 1.00011C120 1.00011 120 1.00011 120 1.00011C120 1.00011 120 1.00011 120 1.00011C120 1.00011 120 1.00011 120 1.00011C120 1.00011 120 1.00011 120 1.00011C120 1.00011 120 1.00011 120 1.00011C120 1.00011 120 1.00011 120 1.00011C120 1.00011 120 1.00011 120 1.00011C120 1.00011 120 1.00011 120 1.00011C120 1.00011 120 1.00011 120 1.00011C120 1.00011 120 1.00011 120 1.00011C120 1.00011 120 1.00011 120 1.00011C120 1.00011 120 1.00011 120 1.00011C120 1.00011 120 1.00011 120 1.00011C120 1.00011 120 1.00011 120 1.00011C120 1.00011 120 1.00011 120 1.00011C120 1.00011 120 1.00011 120 1.00011C120 1.00011 120 1.00011 120 1.00011C120 1.00011 120 1.00011 120 1.00011C120 1.00011 120 1.00011 120 1.00011C120 1.00011 120 1.00011 120 1.00011C120 1.00011 120 1.00011 120 1.00011C120 1.00011 120 1.00011 120 1.00011C120 1.00011 120 1.00011 120 1.00011C120 1.00011 120 1.00011 120 1.00011C120 1.00011 120 1.00011 120 1.00011C120 1.00011 120 1.00011 120 1.00011C120 1.00011 120 1.00011 120 1.00011C120 1.00011 120 1.00011 120 1.00011C120 1.00011 120 1.00011 120 1.00011C120 1.00011 120 1.00011 120 1.00011C120 1.00011 120 1.00011 120 1.00011C120 1.00011 120 1.00011 120 1.00011C120 1.00011 120 1.00011 120 1.00011C120 1.00011 120 1.00011 120 1.00011C120 1.00011 120 1.00011 120 1.00011C120 1.00011 120 1.00011 120 1.00011C120 1.00011 120 1.00011 120 1.00011H122C122 1.00011 122 1.00011 122 1.00011C122 1.00011 122 1.00011 122 1.00011C122 1.00011 122 1.00011 122 1.00011C122 1.00011 122 1.00011 122 1.00011C122 1.00011 122 1.00011 122 1.00011C122 1.00011 122 1.00011 122 1.00011C122 1.00011 122 1.00011 122 1.00011C122 1.00011 122 1.00011 122 1.00011C122 1.00011 122 1.00011 122 1.00011C122 1.00011 122 1.00011 122 1.00011C122 1.00011 122 1.00011 122 1.00011C122 1.00011 122 1.00011 122 1.00011C122 1.00011 122 1.00011 122 1.00011C122 1.00011 122 1.00011 122 1.00011C122 1.00011 122 1.00011 122 1.00011C122 1.00011 122 1.00011 122 1.00011C122 1.00011 122 1.00011 122 1.00011C122 1.00011 122 1.00011 122 1.00011C122 1.00011 122 1.00011 122 1.00011C122 1.00011 122 1.00011 122 1.00011C122 1.00011 122 1.00011 122 1.00011C122 1.00011 122 1.00011 122 1.00011C122 1.00011 122 1.00011 122 1.00011C122 1.00011 122 1.00011 122 1.00011C122 1.00011 122 1.00011 122 1.00011C122 1.00011 122 1.00011 122 1.00011C122 1.00011 122 1.00011 122 1.00011C122 1.00011 122 1.00011 122 1.00011C122 1.00011 122 1.00011 122 1.00011C122 1.00011 122 1.00011 122 1.00011C122 1.00011 122 1.00011 122 1.00011C122 1.00011 122 1.00011 122 1.00011C122 1.00011 122 1.00011 122 1.00011C122 1.00011 122 1.00011 122 1.00011C122 1.00011 122 1.00011 122 1.00011C122 1.00011 122 1.00011 122 1.00011C122 1.00011 122 1.00011 122 1.00011C122 1.00011 122 1.00011 122 1.00011C122 1.00011 122 1.00011 122 1.00011C122 1.00011 122 1.00011 122 1.00011C122 1.00011 122 1.00011 122 1.00011C122 1.00011 122 1.00011 122 1.00011C122 1.0001 122 1.0001 122 1.0001C122 1.0001 122 1.0001 122 1.0001C122 1.0001 122 1.0001 122 1.0001C122 1.0001 122 1.0001 122 1.0001C122 1.0001 122 1.0001 122 1.0001C122 1.0001 122 1.0001 122 1.0001C122 1.0001 122 1.0001 122 1.0001C122 1.0001 122 1.0001 122 1.0001C122 1.0001 122 1.0001 122 1.0001C122 1.0001 122 1.0001 122 1.0001C122 1.0001 122 1.0001 122 1.0001C122 1.0001 122 1.0001 122 1.0001C122 1.0001 122 1.0001 122 1.0001C122 1.0001 122 1.0001 122 1.0001C122 1.0001 122 1.0001 122 1.0001C122 1.0001 122 1.0001 122 1.0001C122 1.0001 122 1.0001 122 1.0001C122 1.0001 122 1.0001 122 1.0001C122 1.0001 122 1.0001 122 1.0001C122 1.0001 122 1.0001 122 1.0001C122 1.0001 122 1.0001 122 1.0001C122 1.0001 122 1.0001 122 1.0001C122 1.0001 122 1.0001 122 1.0001C122 1.0001 122 1.0001 122 1.0001C122 1.0001 122 1.0001 122 1.0001C122 1.0001 122 1.0001 122 1.0001C122 1.0001 122 1.0001 122 1.0001C122 1.0001 122 1.0001 122 1.0001C122 1.0001 122 1.0001 122 1.0001C122 1.0001 122 1.0001 122 1.0001C122 1.0001 122 1.0001 122 1.0001C122 1.0001 122 1.0001 122 1.0001C122 1.0001 122 1.0001 122 1.0001C122 1.0001 122 1.0001 122 1.0001C122 1.0001 122 1.0001 122 1.0001C122 1.0001 122 1.0001 122 1.0001C122 1.0001 122 1.0001 122 1.0001C122 1.0001 122 1.0001 122 1.0001C122 1.0001 122 1.0001 122 1.0001C122 1.0001 122 1.0001 122 1.0001C122 1.0001 122 1.0001 122 1.0001C122 1.0001 122 1.0001 122 1.0001C122 1.0001 122 1.0001 122 1.0001C122 1.0001 122 1.0001 122 1.0001C122 1.0001 122 1.0001 122 1.00009C122 1.00009 122 1.00009 122 1.00009C122 1.00009 122 1.00009 122 1.00009C122 1.00009 122 1.00009 122 1.00009C122 1.00009 122 1.00009 122 1.00009C122 1.00009 122 1.00009 122 1.00009C122 1.00009 122 1.00009 122 1.00009C122 1.00009 122 1.00009 122 1.00009C122 1.00009 122 1.00009 122 1.00009C122 1.00009 122 1.00009 122 1.00009C122 1.00009 122 1.00009 122 1.00009C122 1.00009 122 1.00009 122 1.00009C122 1.00009 122 1.00009 122 1.00009C122 1.00009 122 1.00009 122 1.00009C122 1.00009 122 1.00009 122 1.00009C122 1.00009 122 1.00009 122 1.00009C122 1.00009 122 1.00009 122 1.00009C122 1.00009 122 1.00009 122 1.00009C122 1.00009 122 1.00009 122 1.00009C122 1.00009 122 1.00009 122 1.00009C122 1.00009 122 1.00009 122 1.00009C122 1.00009 122 1.00009 122 1.00009C122 1.00009 122 1.00009 122 1.00009C122 1.00009 122 1.00009 122 1.00009C122 1.00009 122 1.00009 122 1.00009C122 1.00009 122 1.00009 122 1.00009C122 1.00009 122 1.00009 122 1.00009C122 1.00009 122 1.00009 122 1.00009C122 1.00009 122 1.00009 122 1.00009C122 1.00009 122 1.00009 122 1.00009C122 1.00009 122 1.00009 122 1.00009C122 1.00009 122 1.00009 122 1.00009C122 1.00009 122 1.00009 122 1.00009C122 1.00009 122 1.00009 122 1.00009C122 1.00009 122 1.00009 122 1.00009C122 1.00009 122 1.00009 122 1.00009C122 1.00009 122 1.00009 122 1.00009C122 1.00009 122 1.00009 122 1.00009C122 1.00009 122 1.00009 122 1.00009C122 1.00009 122 1.00009 122 1.00009C122 1.00009 122 1.00009 122 1.00009C122 1.00009 122 1.00009 122 1.00009C122 1.00009 122 1.00009 122 1.00009C122 1.00009 122 1.00009 122 1.00009C122 1.00009 122 1.00009 122 1.00009C122 1.00009 122 1.00009 122 1.00008C122 1.00008 122 1.00008 122 1.00008C122 1.00008 122 1.00008 122 1.00008C122 1.00008 122 1.00008 122 1.00008C122 1.00008 122 1.00008 122 1.00008C122 1.00008 122 1.00008 122 1.00008C122 1.00008 122 1.00008 122 1.00008C122 1.00008 122 1.00008 122 1.00008C122 1.00008 122 1.00008 122 1.00008C122 1.00008 122 1.00008 122 1.00008C122 1.00008 122 1.00008 122 1.00008C122 1.00008 122 1.00008 122 1.00008C122 1.00008 122 1.00008 122 1.00008C122 1.00008 122 1.00008 122 1.00008C122 1.00008 122 1.00008 122 1.00008C122 1.00008 122 1.00008 122 1.00008C122 1.00008 122 1.00008 122 1.00008C122 1.00008 122 1.00008 122 1.00008C122 1.00008 122 1.00008 122 1.00008C122 1.00008 122 1.00008 122 1.00008C122 1.00008 122 1.00008 122 1.00008C122 1.00008 122 1.00008 122 1.00008C122 1.00008 122 1.00008 122 1.00008C122 1.00008 122 1.00008 122 1.00008C122 1.00008 122 1.00008 122 1.00008C122 1.00008 122 1.00008 122 1.00008C122 1.00008 122 1.00008 122 1.00008C122 1.00008 122 1.00008 122 1.00008C122 1.00008 122 1.00008 122 1.00008C122 1.00008 122 1.00008 122 1.00008C122 1.00008 122 1.00008 122 1.00008C122 1.00008 122 1.00008 122 1.00008C122 1.00008 122 1.00008 122 1.00008C122 1.00008 122 1.00008 122 1.00008C122 1.00008 122 1.00008 122 1.00008C122 1.00008 122 1.00008 122 1.00008C122 1.00008 122 1.00008 122 1.00008C122 1.00008 122 1.00008 122 1.00008C122 1.00008 122 1.00008 122 1.00008C122 1.00008 122 1.00008 122 1.00008C122 1.00008 122 1.00008 122 1.00008C122 1.00008 122 1.00008 122 1.00008C122 1.00008 122 1.00008 122 1.00008C122 1.00008 122 1.00008 122 1.00008C122 1.00008 122 1.00008 122 1.00008C122 1.00008 122 1.00007 122 1.00007C122 1.00007 122 1.00007 122 1.00007C122 1.00007 122 1.00007 122 1.00007C122 1.00007 122 1.00007 122 1.00007C122 1.00007 122 1.00007 122 1.00007C122 1.00007 122 1.00007 122 1.00007C122 1.00007 122 1.00007 122 1.00007C122 1.00007 122 1.00007 122 1.00007C122 1.00007 122 1.00007 122 1.00007C122 1.00007 122 1.00007 122 1.00007C122 1.00007 122 1.00007 122 1.00007C122 1.00007 122 1.00007 122 1.00007C122 1.00007 122 1.00007 122 1.00007C122 1.00007 122 1.00007 122 1.00007C122 1.00007 122 1.00007 122 1.00007C122 1.00007 122 1.00007 122 1.00007C122 1.00007 122 1.00007 122 1.00007C122 1.00007 122 1.00007 122 1.00007C122 1.00007 122 1.00007 122 1.00007C122 1.00007 122 1.00007 122 1.00007C122 1.00007 122 1.00007 122 1.00007C122 1.00007 122 1.00007 122 1.00007C122 1.00007 122 1.00007 122 1.00007C122 1.00007 122 1.00007 122 1.00007C122 1.00007 122 1.00007 122 1.00007C122 1.00007 122 1.00007 122 1.00007C122 1.00007 122 1.00007 122 1.00007C122 1.00007 122 1.00007 122 1.00007C122 1.00007 122 1.00007 122 1.00007C122 1.00007 122 1.00007 122 1.00007C122 1.00007 122 1.00007 122 1.00007C122 1.00007 122 1.00007 122 1.00007C122 1.00007 122 1.00007 122 1.00007C122 1.00007 122 1.00007 122 1.00007C122 1.00007 122 1.00007 122 1.00007C122 1.00007 122 1.00007 122 1.00007C122 1.00007 122 1.00007 122 1.00007C122 1.00007 122 1.00007 122 1.00007C122 1.00007 122 1.00007 122 1.00007C122 1.00007 122 1.00007 122 1.00007C122 1.00007 122 1.00007 122 1.00007C122 1.00007 122 1.00007 122 1.00007C122 1.00007 122 1.00007 122 1.00007C122 1.00007 122 1.00007 122 1.00007C122 1.00007 122 1.00007 122 1.00007C122 1.00006 122 1.00006 122 1.00006C122 1.00006 122 1.00006 122 1.00006C122 1.00006 122 1.00006 122 1.00006C122 1.00006 122 1.00006 122 1.00006C122 1.00006 122 1.00006 122 1.00006C122 1.00006 122 1.00006 122 1.00006C122 1.00006 122 1.00006 122 1.00006C122 1.00006 122 1.00006 122 1.00006C122 1.00006 122 1.00006 122 1.00006C122 1.00006 122 1.00006 122 1.00006C122 1.00006 122 1.00006 122 1.00006C122 1.00006 122 1.00006 122 1.00006C122 1.00006 122 1.00006 122 1.00006C122 1.00006 122 1.00006 122 1.00006C122 1.00006 122 1.00006 122 1.00006C122 1.00006 122 1.00006 122 1.00006C122 1.00006 122 1.00006 122 1.00006C122 1.00006 122 1.00006 122 1.00006C122 1.00006 122 1.00006 122 1.00006C122 1.00006 122 1.00006 122 1.00006C122 1.00006 122 1.00006 122 1.00006C122 1.00006 122 1.00006 122 1.00006C122 1.00006 122 1.00006 122 1.00006C122 1.00006 122 1.00006 122 1.00006C122 1.00006 122 1.00006 122 1.00006C122 1.00006 122 1.00006 122 1.00006C122 1.00006 122 1.00006 122 1.00006C122 1.00006 122 1.00006 122 1.00006C122 1.00006 122 1.00006 122 1.00006C122 1.00006 122 1.00006 122 1.00006C122 1.00006 122 1.00006 122 1.00006C122 1.00006 122 1.00006 122 1.00006C122 1.00006 122 1.00006 122 1.00006C122 1.00006 122 1.00006 122 1.00006C122 1.00006 122 1.00006 122 1.00006C122 1.00006 122 1.00006 122 1.00006C122 1.00006 122 1.00006 122 1.00006C122 1.00006 122 1.00006 122 1.00006C122 1.00006 122 1.00006 122 1.00006C122 1.00006 122 1.00006 122 1.00006C122 1.00006 122 1.00006 122 1.00006C122 1.00006 122 1.00006 122 1.00006C122 1.00006 122 1.00006 122 1.00006C122 1.00006 122 1.00006 122 1.00006C122 1.00006 122 1.00006 122 1.00005C122 1.00005 122 1.00005 122 1.00005C122 1.00005 122 1.00005 122 1.00005C122 1.00005 122 1.00005 122 1.00005C122 1.00005 122 1.00005 122 1.00005C122 1.00005 122 1.00005 122 1.00005C122 1.00005 122 1.00005 122 1.00005C122 1.00005 122 1.00005 122 1.00005C122 1.00005 122 1.00005 122 1.00005C122 1.00005 122 1.00005 122 1.00005C122 1.00005 122 1.00005 122 1.00005C122 1.00005 122 1.00005 122 1.00005C122 1.00005 122 1.00005 122 1.00005C122 1.00005 122 1.00005 122 1.00005C122 1.00005 122 1.00005 122 1.00005C122 1.00005 122 1.00005 122 1.00005C122 1.00005 122 1.00005 122 1.00005C122 1.00005 122 1.00005 122 1.00005C122 1.00005 122 1.00005 122 1.00005C122 1.00005 122 1.00005 122 1.00005C122 1.00005 122 1.00005 122 1.00005C122 1.00005 122 1.00005 122 1.00005C122 1.00005 122 1.00005 122 1.00005C122 1.00005 122 1.00005 122 1.00005C122 1.00005 122 1.00005 122 1.00005C122 1.00005 122 1.00005 122 1.00005C122 1.00005 122 1.00005 122 1.00005C122 1.00005 122 1.00005 122 1.00005C122 1.00005 122 1.00005 122 1.00005C122 1.00005 122 1.00005 122 1.00005C122 1.00005 122 1.00005 122 1.00005C122 1.00005 122 1.00005 122 1.00005C122 1.00005 122 1.00005 122 1.00005C122 1.00005 122 1.00005 122 1.00005C122 1.00005 122 1.00005 122 1.00005C122 1.00005 122 1.00005 122 1.00005C122 1.00005 122 1.00005 122 1.00005C122 1.00005 122 1.00005 122 1.00005C122 1.00005 122 1.00005 122 1.00005C122 1.00005 122 1.00005 122 1.00005C122 1.00005 122 1.00005 122 1.00005C122 1.00005 122 1.00005 122 1.00005C122 1.00005 122 1.00005 122 1.00005C122 1.00005 122 1.00005 122 1.00005C122 1.00005 122 1.00005 122 1.00005C122 1.00005 122 1.00005 122 1.00004C122 1.00004 122 1.00004 122 1.00004C122 1.00004 122 1.00004 122 1.00004C122 1.00004 122 1.00004 122 1.00004C122 1.00004 122 1.00004 122 1.00004C122 1.00004 122 1.00004 122 1.00004C122 1.00004 122 1.00004 122 1.00004C122 1.00004 122 1.00004 122 1.00004C122 1.00004 122 1.00004 122 1.00004C122 1.00004 122 1.00004 122 1.00004C122 1.00004 122 1.00004 122 1.00004C122 1.00004 122 1.00004 122 1.00004C122 1.00004 122 1.00004 122 1.00004C122 1.00004 122 1.00004 122 1.00004C122 1.00004 122 1.00004 122 1.00004C122 1.00004 122 1.00004 122 1.00004C122 1.00004 122 1.00004 122 1.00004C122 1.00004 122 1.00004 122 1.00004C122 1.00004 122 1.00004 122 1.00004C122 1.00004 122 1.00004 122 1.00004C122 1.00004 122 1.00004 122 1.00004C122 1.00004 122 1.00004 122 1.00004C122 1.00004 122 1.00004 122 1.00004C122 1.00004 122 1.00004 122 1.00004C122 1.00004 122 1.00004 122 1.00004C122 1.00004 122 1.00004 122 1.00004C122 1.00004 122 1.00004 122 1.00004C122 1.00004 122 1.00004 122 1.00004C122 1.00004 122 1.00004 122 1.00004C122 1.00004 122 1.00004 122 1.00004C122 1.00004 122 1.00004 122 1.00004C122 1.00004 122 1.00004 122 1.00004C122 1.00004 122 1.00004 122 1.00004C122 1.00004 122 1.00004 122 1.00004C122 1.00004 122 1.00004 122 1.00004C122 1.00004 122 1.00004 122 1.00004C122 1.00004 122 1.00004 122 1.00004C122 1.00004 122 1.00004 122 1.00004C122 1.00004 122 1.00004 122 1.00004C122 1.00004 122 1.00004 122 1.00004C122 1.00004 122 1.00004 122 1.00004C122 1.00004 122 1.00004 122 1.00004C122 1.00004 122 1.00004 122 1.00004C122 1.00004 122 1.00004 122 1.00004C122 1.00004 122 1.00004 122 1.00004C122 1.00004 122 1.00003 122 1.00003C122 1.00003 122 1.00003 122 1.00003C122 1.00003 122 1.00003 122 1.00003C122 1.00003 122 1.00003 122 1.00003C122 1.00003 122 1.00003 122 1.00003C122 1.00003 122 1.00003 122 1.00003C122 1.00003 122 1.00003 122 1.00003C122 1.00003 122 1.00003 122 1.00003C122 1.00003 122 1.00003 122 1.00003C122 1.00003 122 1.00003 122 1.00003C122 1.00003 122 1.00003 122 1.00003C122 1.00003 122 1.00003 122 1.00003C122 1.00003 122 1.00003 122 1.00003C122 1.00003 122 1.00003 122 1.00003C122 1.00003 122 1.00003 122 1.00003C122 1.00003 122 1.00003 122 1.00003C122 1.00003 122 1.00003 122 1.00003C122 1.00003 122 1.00003 122 1.00003C122 1.00003 122 1.00003 122 1.00003C122 1.00003 122 1.00003 122 1.00003C122 1.00003 122 1.00003 122 1.00003C122 1.00003 122 1.00003 122 1.00003C122 1.00003 122 1.00003 122 1.00003C122 1.00003 122 1.00003 122 1.00003C122 1.00003 122 1.00003 122 1.00003C122 1.00003 122 1.00003 122 1.00003C122 1.00003 122 1.00003 122 1.00003C122 1.00003 122 1.00003 122 1.00003C122 1.00003 122 1.00003 122 1.00003C122 1.00003 122 1.00003 122 1.00003C122 1.00003 122 1.00003 122 1.00003C122 1.00003 122 1.00003 122 1.00003C122 1.00003 122 1.00003 122 1.00003C122 1.00003 122 1.00003 122 1.00003C122 1.00003 122 1.00003 122 1.00003C122 1.00003 122 1.00003 122 1.00003C122 1.00003 122 1.00003 122 1.00003C122 1.00003 122 1.00003 122 1.00003C122 1.00003 122 1.00003 122 1.00003C122 1.00003 122 1.00003 122 1.00003C122 1.00003 122 1.00003 122 1.00003C122 1.00003 122 1.00003 122 1.00003C122 1.00003 122 1.00003 122 1.00003C122 1.00003 122 1.00003 122 1.00003C122 1.00003 122 1.00003 122 1.00003C122 1.00002 122 1.00002 122 1.00002C122 1.00002 122 1.00002 122 1.00002C122 1.00002 122 1.00002 122 1.00002C122 1.00002 122 1.00002 122 1.00002C122 1.00002 122 1.00002 122 1.00002C122 1.00002 122 1.00002 122 1.00002C122 1.00002 122 1.00002 122 1.00002C122 1.00002 122 1.00002 122 1.00002C122 1.00002 122 1.00002 122 1.00002C122 1.00002 122 1.00002 122 1.00002C122 1.00002 122 1.00002 122 1.00002C122 1.00002 122 1.00002 122 1.00002C122 1.00002 122 1.00002 122 1.00002C122 1.00002 122 1.00002 122 1.00002C122 1.00002 122 1.00002 122 1.00002C122 1.00002 122 1.00002 122 1.00002C122 1.00002 122 1.00002 122 1.00002C122 1.00002 122 1.00002 122 1.00002C122 1.00002 122 1.00002 122 1.00002C122 1.00002 122 1.00002 122 1.00002C122 1.00002 122 1.00002 122 1.00002C122 1.00002 122 1.00002 122 1.00002C122 1.00002 122 1.00002 122 1.00002C122 1.00002 122 1.00002 122 1.00002C122 1.00002 122 1.00002 122 1.00002C122 1.00002 122 1.00002 122 1.00002C122 1.00002 122 1.00002 122 1.00002C122 1.00002 122 1.00002 122 1.00002C122 1.00002 122 1.00002 122 1.00002C122 1.00002 122 1.00002 122 1.00002C122 1.00002 122 1.00002 122 1.00002C122 1.00002 122 1.00002 122 1.00002C122 1.00002 122 1.00002 122 1.00002C122 1.00002 122 1.00002 122 1.00002C122 1.00002 122 1.00002 122 1.00002C122 1.00002 122 1.00002 122 1.00002C122 1.00002 122 1.00002 122 1.00002C122 1.00002 122 1.00002 122 1.00002C122 1.00002 122 1.00002 122 1.00002C122 1.00002 122 1.00002 122 1.00002C122 1.00002 122 1.00002 122 1.00002C122 1.00002 122 1.00002 122 1.00002C122 1.00002 122 1.00002 122 1.00002C122 1.00002 122 1.00002 122 1.00002C122 1.00002 122 1.00002 122 1.00001C122 1.00001 122 1.00001 122 1.00001C122 1.00001 122 1.00001 122 1.00001C122 1.00001 122 1.00001 122 1.00001C122 1.00001 122 1.00001 122 1.00001C122 1.00001 122 1.00001 122 1.00001C122 1.00001 122 1.00001 122 1.00001C122 1.00001 122 1.00001 122 1.00001C122 1.00001 122 1.00001 122 1.00001C122 1.00001 122 1.00001 122 1.00001C122 1.00001 122 1.00001 122 1.00001C122 1.00001 122 1.00001 122 1.00001C122 1.00001 122 1.00001 122 1.00001C122 1.00001 122 1.00001 122 1.00001C122 1.00001 122 1.00001 122 1.00001C122 1.00001 122 1.00001 122 1.00001C122 1.00001 122 1.00001 122 1.00001C122 1.00001 122 1.00001 122 1.00001C122 1.00001 122 1.00001 122 1.00001C122 1.00001 122 1.00001 122 1.00001C122 1.00001 122 1.00001 122 1.00001C122 1.00001 122 1.00001 122 1.00001C122 1.00001 122 1.00001 122 1.00001C122 1.00001 122 1.00001 122 1.00001C122 1.00001 122 1.00001 122 1.00001C122 1.00001 122 1.00001 122 1.00001C122 1.00001 122 1.00001 122 1.00001C122 1.00001 122 1.00001 122 1.00001C122 1.00001 122 1.00001 122 1.00001C122 1.00001 122 1.00001 122 1.00001C122 1.00001 122 1.00001 122 1.00001C122 1.00001 122 1.00001 122 1.00001C122 1.00001 122 1.00001 122 1.00001C122 1.00001 122 1.00001 122 1.00001C122 1.00001 122 1.00001 122 1.00001C122 1.00001 122 1.00001 122 1.00001C122 1.00001 122 1.00001 122 1.00001C122 1.00001 122 1.00001 122 1.00001C122 1.00001 122 1.00001 122 1.00001C122 1.00001 122 1.00001 122 1.00001C122 1.00001 122 1.00001 122 1.00001C122 1.00001 122 1.00001 122 1.00001C122 1.00001 122 1.00001 122 1.00001C122 1.00001 122 1.00001 122 1.00001C122 1.00001 122 1.00001 122 1.00001C122 1.00001 122 1 122 1C122 1 122 1 122 1C122 1 122 1 122 1C122 1 122 1 122 1C122 1 122 1 122 1C122 1 122 1 122 1C122 1 122 1 122 1C122 1 122 1 122 1C122 1 122 1 122 1C122 1 122 1 122 1C122 1 122 1 122 1C122 1 122 1 122 1C122 1 122 1 122 1C122 1 122 1 122 1C122 1 122 1 122 1C122 1 122 1 122 1C122 1 122 1 122 1C122 1 122 1 122 1C122 1 122 1 122 1C122 1 122 1 122 1C122 1 122 1 122 1C122 1 122 1 122 1C122 1 122 1 122 1H120ZM121 2H141V0H121V2ZM140 1V1.00011H142V1H140ZM140 1.00011C140 12.7954 149.384 22.3905 161 22.3905V20.3905C150.525 20.3905 142 11.7274 142 1.00011H140ZM161 22.3905C172.616 22.3905 182 12.7954 182 1.00011H180C180 11.7274 171.475 20.3905 161 20.3905V22.3905ZM182 1.00011V1H180V1.00011H182ZM181 2H201V0H181V2ZM200 1V153.928H202V1H200ZM201 152.928H1V154.928H201V152.928ZM2 153.928V1H0V153.928H2ZM1 2H21.0002V0H1V2ZM20.0002 1V1.00011H22.0002V1H20.0002ZM20.0002 1.00011C20.0002 12.7954 29.3841 22.3905 41.0002 22.3905V20.3905C30.5249 20.3905 22.0002 11.7274 22.0002 1.00011H20.0002ZM41.0002 22.3905C52.6163 22.3905 62.0002 12.7954 62.0002 1.00011H60.0002C60.0002 11.7274 51.4755 20.3905 41.0002 20.3905V22.3905ZM62.0002 1.00011V1H60.0002V1.00011H62.0002ZM61.0002 2H81.0004V0H61.0002V2ZM82.0004 1.00011C82.0004 1.00011 82.0004 1.00011 82.0004 1.00011C82.0004 1.00011 82.0004 1.00011 82.0004 1.00011C82.0004 1.00011 82.0004 1.00011 82.0004 1.00011C82.0004 1.00011 82.0004 1.00011 82.0004 1.00011C82.0004 1.00011 82.0004 1.00011 82.0004 1.00011C82.0004 1.00011 82.0004 1.00011 82.0004 1.00011C82.0004 1.00011 82.0004 1.00011 82.0004 1.00011C82.0004 1.00011 82.0004 1.00011 82.0004 1.00011C82.0004 1.00011 82.0004 1.00011 82.0004 1.00011C82.0004 1.00011 82.0004 1.00011 82.0004 1.00011C82.0004 1.00011 82.0004 1.00011 82.0004 1.00011C82.0004 1.00011 82.0004 1.00011 82.0004 1.00011C82.0004 1.00011 82.0004 1.00011 82.0004 1.00011C82.0004 1.00011 82.0004 1.00011 82.0004 1.00011C82.0004 1.00011 82.0004 1.00011 82.0004 1.00011C82.0004 1.00011 82.0004 1.00011 82.0004 1.00011C82.0004 1.00011 82.0004 1.00011 82.0004 1.00011C82.0004 1.00011 82.0004 1.00011 82.0004 1.00011C82.0004 1.00011 82.0004 1.00011 82.0004 1.00011C82.0004 1.00011 82.0004 1.00011 82.0004 1.00011C82.0004 1.00011 82.0004 1.00011 82.0004 1.00011C82.0004 1.00011 82.0004 1.00011 82.0004 1.00011C82.0004 1.00011 82.0004 1.00011 82.0004 1.00011C82.0004 1.00011 82.0004 1.00011 82.0004 1.00011C82.0004 1.00011 82.0004 1.00011 82.0004 1.00011C82.0004 1.00011 82.0004 1.00011 82.0004 1.00011C82.0004 1.00011 82.0004 1.00011 82.0004 1.00011C82.0004 1.00011 82.0004 1.00011 82.0004 1.00011C82.0004 1.00011 82.0004 1.00011 82.0004 1.00011C82.0004 1.00011 82.0004 1.00011 82.0004 1.00011C82.0004 1.00011 82.0004 1.00011 82.0004 1.00011C82.0004 1.00011 82.0004 1.00011 82.0004 1.00011C82.0004 1.00011 82.0004 1.00011 82.0004 1.00011C82.0004 1.00011 82.0004 1.00011 82.0004 1.00011C82.0004 1.00011 82.0004 1.00011 82.0004 1.00011C82.0004 1.00011 82.0004 1.00011 82.0004 1.00011C82.0004 1.00011 82.0004 1.00011 82.0004 1.00011C82.0004 1.00011 82.0004 1.00011 82.0004 1.00011C82.0004 1.00011 82.0004 1.00011 82.0004 1.00011C82.0004 1.00011 82.0004 1.00011 82.0004 1.00011C82.0004 1.00011 82.0004 1.00011 82.0004 1.00011C82.0004 1.00011 82.0004 1.00011 82.0004 1.00011C82.0004 1.0001 82.0004 1.0001 82.0004 1.0001C82.0004 1.0001 82.0004 1.0001 82.0004 1.0001C82.0004 1.0001 82.0004 1.0001 82.0004 1.0001C82.0004 1.0001 82.0004 1.0001 82.0004 1.0001C82.0004 1.0001 82.0004 1.0001 82.0004 1.0001C82.0004 1.0001 82.0004 1.0001 82.0004 1.0001C82.0004 1.0001 82.0004 1.0001 82.0004 1.0001C82.0004 1.0001 82.0004 1.0001 82.0004 1.0001C82.0004 1.0001 82.0004 1.0001 82.0004 1.0001C82.0004 1.0001 82.0004 1.0001 82.0004 1.0001C82.0004 1.0001 82.0004 1.0001 82.0004 1.0001C82.0004 1.0001 82.0004 1.0001 82.0004 1.0001C82.0004 1.0001 82.0004 1.0001 82.0004 1.0001C82.0004 1.0001 82.0004 1.0001 82.0004 1.0001C82.0004 1.0001 82.0004 1.0001 82.0004 1.0001C82.0004 1.0001 82.0004 1.0001 82.0004 1.0001C82.0004 1.0001 82.0004 1.0001 82.0004 1.0001C82.0004 1.0001 82.0004 1.0001 82.0004 1.0001C82.0004 1.0001 82.0004 1.0001 82.0004 1.0001C82.0004 1.0001 82.0004 1.0001 82.0004 1.0001C82.0004 1.0001 82.0004 1.0001 82.0004 1.0001C82.0004 1.0001 82.0004 1.0001 82.0004 1.0001C82.0004 1.0001 82.0004 1.0001 82.0004 1.0001C82.0004 1.0001 82.0004 1.0001 82.0004 1.0001C82.0004 1.0001 82.0004 1.0001 82.0004 1.0001C82.0004 1.0001 82.0004 1.0001 82.0004 1.0001C82.0004 1.0001 82.0004 1.0001 82.0004 1.0001C82.0004 1.0001 82.0004 1.0001 82.0004 1.0001C82.0004 1.0001 82.0004 1.0001 82.0004 1.0001C82.0004 1.0001 82.0004 1.0001 82.0004 1.0001C82.0004 1.0001 82.0004 1.0001 82.0004 1.0001C82.0004 1.0001 82.0004 1.0001 82.0004 1.0001C82.0004 1.0001 82.0004 1.0001 82.0004 1.0001C82.0004 1.0001 82.0004 1.0001 82.0004 1.0001C82.0004 1.0001 82.0004 1.0001 82.0004 1.0001C82.0004 1.0001 82.0004 1.0001 82.0004 1.0001C82.0004 1.0001 82.0004 1.0001 82.0004 1.0001C82.0004 1.0001 82.0004 1.0001 82.0004 1.0001C82.0004 1.0001 82.0004 1.0001 82.0004 1.0001C82.0004 1.0001 82.0004 1.0001 82.0004 1.0001C82.0004 1.0001 82.0004 1.0001 82.0004 1.0001C82.0004 1.0001 82.0004 1.0001 82.0004 1.0001C82.0004 1.0001 82.0004 1.0001 82.0004 1.0001C82.0004 1.0001 82.0004 1.0001 82.0004 1.0001C82.0004 1.0001 82.0004 1.0001 82.0004 1.00009C82.0004 1.00009 82.0004 1.00009 82.0004 1.00009C82.0004 1.00009 82.0004 1.00009 82.0004 1.00009C82.0004 1.00009 82.0004 1.00009 82.0004 1.00009C82.0004 1.00009 82.0004 1.00009 82.0004 1.00009C82.0004 1.00009 82.0004 1.00009 82.0004 1.00009C82.0004 1.00009 82.0004 1.00009 82.0004 1.00009C82.0004 1.00009 82.0004 1.00009 82.0004 1.00009C82.0004 1.00009 82.0004 1.00009 82.0004 1.00009C82.0004 1.00009 82.0004 1.00009 82.0004 1.00009C82.0004 1.00009 82.0004 1.00009 82.0004 1.00009C82.0004 1.00009 82.0004 1.00009 82.0004 1.00009C82.0004 1.00009 82.0004 1.00009 82.0004 1.00009C82.0004 1.00009 82.0004 1.00009 82.0004 1.00009C82.0004 1.00009 82.0004 1.00009 82.0004 1.00009C82.0004 1.00009 82.0004 1.00009 82.0004 1.00009C82.0004 1.00009 82.0004 1.00009 82.0004 1.00009C82.0004 1.00009 82.0004 1.00009 82.0004 1.00009C82.0004 1.00009 82.0004 1.00009 82.0004 1.00009C82.0004 1.00009 82.0004 1.00009 82.0004 1.00009C82.0004 1.00009 82.0004 1.00009 82.0004 1.00009C82.0004 1.00009 82.0004 1.00009 82.0004 1.00009C82.0004 1.00009 82.0004 1.00009 82.0004 1.00009C82.0004 1.00009 82.0004 1.00009 82.0004 1.00009C82.0004 1.00009 82.0004 1.00009 82.0004 1.00009C82.0004 1.00009 82.0004 1.00009 82.0004 1.00009C82.0004 1.00009 82.0004 1.00009 82.0004 1.00009C82.0004 1.00009 82.0004 1.00009 82.0004 1.00009C82.0004 1.00009 82.0004 1.00009 82.0004 1.00009C82.0004 1.00009 82.0004 1.00009 82.0004 1.00009C82.0004 1.00009 82.0004 1.00009 82.0004 1.00009C82.0004 1.00009 82.0004 1.00009 82.0004 1.00009C82.0004 1.00009 82.0004 1.00009 82.0004 1.00009C82.0004 1.00009 82.0004 1.00009 82.0004 1.00009C82.0004 1.00009 82.0004 1.00009 82.0004 1.00009C82.0004 1.00009 82.0004 1.00009 82.0004 1.00009C82.0004 1.00009 82.0004 1.00009 82.0004 1.00009C82.0004 1.00009 82.0004 1.00009 82.0004 1.00009C82.0004 1.00009 82.0004 1.00009 82.0004 1.00009C82.0004 1.00009 82.0004 1.00009 82.0004 1.00009C82.0004 1.00009 82.0004 1.00009 82.0004 1.00009C82.0004 1.00009 82.0004 1.00009 82.0004 1.00009C82.0004 1.00009 82.0004 1.00009 82.0004 1.00009C82.0004 1.00009 82.0004 1.00009 82.0004 1.00009C82.0004 1.00009 82.0004 1.00009 82.0004 1.00009C82.0004 1.00009 82.0004 1.00009 82.0004 1.00008C82.0004 1.00008 82.0004 1.00008 82.0004 1.00008C82.0004 1.00008 82.0004 1.00008 82.0004 1.00008C82.0004 1.00008 82.0004 1.00008 82.0004 1.00008C82.0004 1.00008 82.0004 1.00008 82.0004 1.00008C82.0004 1.00008 82.0004 1.00008 82.0004 1.00008C82.0004 1.00008 82.0004 1.00008 82.0004 1.00008C82.0004 1.00008 82.0004 1.00008 82.0004 1.00008C82.0004 1.00008 82.0004 1.00008 82.0004 1.00008C82.0004 1.00008 82.0004 1.00008 82.0004 1.00008C82.0004 1.00008 82.0004 1.00008 82.0004 1.00008C82.0004 1.00008 82.0004 1.00008 82.0004 1.00008C82.0004 1.00008 82.0004 1.00008 82.0004 1.00008C82.0004 1.00008 82.0004 1.00008 82.0004 1.00008C82.0004 1.00008 82.0004 1.00008 82.0004 1.00008C82.0004 1.00008 82.0004 1.00008 82.0004 1.00008C82.0004 1.00008 82.0004 1.00008 82.0004 1.00008C82.0004 1.00008 82.0004 1.00008 82.0004 1.00008C82.0004 1.00008 82.0004 1.00008 82.0004 1.00008C82.0004 1.00008 82.0004 1.00008 82.0004 1.00008C82.0004 1.00008 82.0004 1.00008 82.0004 1.00008C82.0004 1.00008 82.0004 1.00008 82.0004 1.00008C82.0004 1.00008 82.0004 1.00008 82.0004 1.00008C82.0004 1.00008 82.0004 1.00008 82.0004 1.00008C82.0004 1.00008 82.0004 1.00008 82.0004 1.00008C82.0004 1.00008 82.0004 1.00008 82.0004 1.00008C82.0004 1.00008 82.0004 1.00008 82.0004 1.00008C82.0004 1.00008 82.0004 1.00008 82.0004 1.00008C82.0004 1.00008 82.0004 1.00008 82.0004 1.00008C82.0004 1.00008 82.0004 1.00008 82.0004 1.00008C82.0004 1.00008 82.0004 1.00008 82.0004 1.00008C82.0004 1.00008 82.0004 1.00008 82.0004 1.00008C82.0004 1.00008 82.0004 1.00008 82.0004 1.00008C82.0004 1.00008 82.0004 1.00008 82.0004 1.00008C82.0004 1.00008 82.0004 1.00008 82.0004 1.00008C82.0004 1.00008 82.0004 1.00008 82.0004 1.00008C82.0004 1.00008 82.0004 1.00008 82.0004 1.00008C82.0004 1.00008 82.0004 1.00008 82.0004 1.00008C82.0004 1.00008 82.0004 1.00008 82.0004 1.00008C82.0004 1.00008 82.0004 1.00008 82.0004 1.00008C82.0004 1.00008 82.0004 1.00008 82.0004 1.00008C82.0004 1.00008 82.0004 1.00008 82.0004 1.00008C82.0004 1.00008 82.0004 1.00008 82.0004 1.00008C82.0004 1.00008 82.0004 1.00008 82.0004 1.00008C82.0004 1.00008 82.0004 1.00008 82.0004 1.00008C82.0004 1.00008 82.0004 1.00007 82.0004 1.00007C82.0004 1.00007 82.0004 1.00007 82.0004 1.00007C82.0004 1.00007 82.0004 1.00007 82.0004 1.00007C82.0004 1.00007 82.0004 1.00007 82.0004 1.00007C82.0004 1.00007 82.0004 1.00007 82.0004 1.00007C82.0004 1.00007 82.0004 1.00007 82.0004 1.00007C82.0004 1.00007 82.0004 1.00007 82.0004 1.00007C82.0004 1.00007 82.0004 1.00007 82.0004 1.00007C82.0004 1.00007 82.0004 1.00007 82.0004 1.00007C82.0004 1.00007 82.0004 1.00007 82.0004 1.00007C82.0004 1.00007 82.0004 1.00007 82.0004 1.00007C82.0004 1.00007 82.0004 1.00007 82.0004 1.00007C82.0004 1.00007 82.0004 1.00007 82.0004 1.00007C82.0004 1.00007 82.0004 1.00007 82.0004 1.00007C82.0004 1.00007 82.0004 1.00007 82.0004 1.00007C82.0004 1.00007 82.0004 1.00007 82.0004 1.00007C82.0004 1.00007 82.0004 1.00007 82.0004 1.00007C82.0004 1.00007 82.0004 1.00007 82.0004 1.00007C82.0004 1.00007 82.0004 1.00007 82.0004 1.00007C82.0004 1.00007 82.0004 1.00007 82.0004 1.00007C82.0004 1.00007 82.0004 1.00007 82.0004 1.00007C82.0004 1.00007 82.0004 1.00007 82.0004 1.00007C82.0004 1.00007 82.0004 1.00007 82.0004 1.00007C82.0004 1.00007 82.0004 1.00007 82.0004 1.00007C82.0004 1.00007 82.0004 1.00007 82.0004 1.00007C82.0004 1.00007 82.0004 1.00007 82.0004 1.00007C82.0004 1.00007 82.0004 1.00007 82.0004 1.00007C82.0004 1.00007 82.0004 1.00007 82.0004 1.00007C82.0004 1.00007 82.0004 1.00007 82.0004 1.00007C82.0004 1.00007 82.0004 1.00007 82.0004 1.00007C82.0004 1.00007 82.0004 1.00007 82.0004 1.00007C82.0004 1.00007 82.0004 1.00007 82.0004 1.00007C82.0004 1.00007 82.0004 1.00007 82.0004 1.00007C82.0004 1.00007 82.0004 1.00007 82.0004 1.00007C82.0004 1.00007 82.0004 1.00007 82.0004 1.00007C82.0004 1.00007 82.0004 1.00007 82.0004 1.00007C82.0004 1.00007 82.0004 1.00007 82.0004 1.00007C82.0004 1.00007 82.0004 1.00007 82.0004 1.00007C82.0004 1.00007 82.0004 1.00007 82.0004 1.00007C82.0004 1.00007 82.0004 1.00007 82.0004 1.00007C82.0004 1.00007 82.0004 1.00007 82.0004 1.00007C82.0004 1.00007 82.0004 1.00007 82.0004 1.00007C82.0004 1.00007 82.0004 1.00007 82.0004 1.00007C82.0004 1.00007 82.0004 1.00007 82.0004 1.00007C82.0004 1.00007 82.0004 1.00007 82.0004 1.00007C82.0004 1.00006 82.0004 1.00006 82.0004 1.00006C82.0004 1.00006 82.0004 1.00006 82.0004 1.00006C82.0004 1.00006 82.0004 1.00006 82.0004 1.00006C82.0004 1.00006 82.0004 1.00006 82.0004 1.00006C82.0004 1.00006 82.0004 1.00006 82.0004 1.00006C82.0004 1.00006 82.0004 1.00006 82.0004 1.00006C82.0004 1.00006 82.0004 1.00006 82.0004 1.00006C82.0004 1.00006 82.0004 1.00006 82.0004 1.00006C82.0004 1.00006 82.0004 1.00006 82.0004 1.00006C82.0004 1.00006 82.0004 1.00006 82.0004 1.00006C82.0004 1.00006 82.0004 1.00006 82.0004 1.00006C82.0004 1.00006 82.0004 1.00006 82.0004 1.00006C82.0004 1.00006 82.0004 1.00006 82.0004 1.00006C82.0004 1.00006 82.0004 1.00006 82.0004 1.00006C82.0004 1.00006 82.0004 1.00006 82.0004 1.00006C82.0004 1.00006 82.0004 1.00006 82.0004 1.00006C82.0004 1.00006 82.0004 1.00006 82.0004 1.00006C82.0004 1.00006 82.0004 1.00006 82.0004 1.00006C82.0004 1.00006 82.0004 1.00006 82.0004 1.00006C82.0004 1.00006 82.0004 1.00006 82.0004 1.00006C82.0004 1.00006 82.0004 1.00006 82.0004 1.00006C82.0004 1.00006 82.0004 1.00006 82.0004 1.00006C82.0004 1.00006 82.0004 1.00006 82.0004 1.00006C82.0004 1.00006 82.0004 1.00006 82.0004 1.00006C82.0004 1.00006 82.0004 1.00006 82.0004 1.00006C82.0004 1.00006 82.0004 1.00006 82.0004 1.00006C82.0004 1.00006 82.0004 1.00006 82.0004 1.00006C82.0004 1.00006 82.0004 1.00006 82.0004 1.00006C82.0004 1.00006 82.0004 1.00006 82.0004 1.00006C82.0004 1.00006 82.0004 1.00006 82.0004 1.00006C82.0004 1.00006 82.0004 1.00006 82.0004 1.00006C82.0004 1.00006 82.0004 1.00006 82.0004 1.00006C82.0004 1.00006 82.0004 1.00006 82.0004 1.00006C82.0004 1.00006 82.0004 1.00006 82.0004 1.00006C82.0004 1.00006 82.0004 1.00006 82.0004 1.00006C82.0004 1.00006 82.0004 1.00006 82.0004 1.00006C82.0004 1.00006 82.0004 1.00006 82.0004 1.00006C82.0004 1.00006 82.0004 1.00006 82.0004 1.00006C82.0004 1.00006 82.0004 1.00006 82.0004 1.00006C82.0004 1.00006 82.0004 1.00006 82.0004 1.00006C82.0004 1.00006 82.0004 1.00006 82.0004 1.00006C82.0004 1.00006 82.0004 1.00006 82.0004 1.00006C82.0004 1.00006 82.0004 1.00006 82.0004 1.00006C82.0004 1.00006 82.0004 1.00006 82.0004 1.00006C82.0004 1.00006 82.0004 1.00006 82.0004 1.00005C82.0004 1.00005 82.0004 1.00005 82.0004 1.00005C82.0004 1.00005 82.0004 1.00005 82.0004 1.00005C82.0004 1.00005 82.0004 1.00005 82.0004 1.00005C82.0004 1.00005 82.0004 1.00005 82.0004 1.00005C82.0004 1.00005 82.0004 1.00005 82.0004 1.00005C82.0004 1.00005 82.0004 1.00005 82.0004 1.00005C82.0004 1.00005 82.0004 1.00005 82.0004 1.00005C82.0004 1.00005 82.0004 1.00005 82.0004 1.00005C82.0004 1.00005 82.0004 1.00005 82.0004 1.00005C82.0004 1.00005 82.0004 1.00005 82.0004 1.00005C82.0004 1.00005 82.0004 1.00005 82.0004 1.00005C82.0004 1.00005 82.0004 1.00005 82.0004 1.00005C82.0004 1.00005 82.0004 1.00005 82.0004 1.00005C82.0004 1.00005 82.0004 1.00005 82.0004 1.00005C82.0004 1.00005 82.0004 1.00005 82.0004 1.00005C82.0004 1.00005 82.0004 1.00005 82.0004 1.00005C82.0004 1.00005 82.0004 1.00005 82.0004 1.00005C82.0004 1.00005 82.0004 1.00005 82.0004 1.00005C82.0004 1.00005 82.0004 1.00005 82.0004 1.00005C82.0004 1.00005 82.0004 1.00005 82.0004 1.00005C82.0004 1.00005 82.0004 1.00005 82.0004 1.00005C82.0004 1.00005 82.0004 1.00005 82.0004 1.00005C82.0004 1.00005 82.0004 1.00005 82.0004 1.00005C82.0004 1.00005 82.0004 1.00005 82.0004 1.00005C82.0004 1.00005 82.0004 1.00005 82.0004 1.00005C82.0004 1.00005 82.0004 1.00005 82.0004 1.00005C82.0004 1.00005 82.0004 1.00005 82.0004 1.00005C82.0004 1.00005 82.0004 1.00005 82.0004 1.00005C82.0004 1.00005 82.0004 1.00005 82.0004 1.00005C82.0004 1.00005 82.0004 1.00005 82.0004 1.00005C82.0004 1.00005 82.0004 1.00005 82.0004 1.00005C82.0004 1.00005 82.0004 1.00005 82.0004 1.00005C82.0004 1.00005 82.0004 1.00005 82.0004 1.00005C82.0004 1.00005 82.0004 1.00005 82.0004 1.00005C82.0004 1.00005 82.0004 1.00005 82.0004 1.00005C82.0004 1.00005 82.0004 1.00005 82.0004 1.00005C82.0004 1.00005 82.0004 1.00005 82.0004 1.00005C82.0004 1.00005 82.0004 1.00005 82.0004 1.00005C82.0004 1.00005 82.0004 1.00005 82.0004 1.00005C82.0004 1.00005 82.0004 1.00005 82.0004 1.00005C82.0004 1.00005 82.0004 1.00005 82.0004 1.00005C82.0004 1.00005 82.0004 1.00005 82.0004 1.00005C82.0004 1.00005 82.0004 1.00005 82.0004 1.00005C82.0004 1.00005 82.0004 1.00005 82.0004 1.00005C82.0004 1.00005 82.0004 1.00005 82.0004 1.00004C82.0004 1.00004 82.0004 1.00004 82.0004 1.00004C82.0004 1.00004 82.0004 1.00004 82.0004 1.00004C82.0004 1.00004 82.0004 1.00004 82.0004 1.00004C82.0004 1.00004 82.0004 1.00004 82.0004 1.00004C82.0004 1.00004 82.0004 1.00004 82.0004 1.00004C82.0004 1.00004 82.0004 1.00004 82.0004 1.00004C82.0004 1.00004 82.0004 1.00004 82.0004 1.00004C82.0004 1.00004 82.0004 1.00004 82.0004 1.00004C82.0004 1.00004 82.0004 1.00004 82.0004 1.00004C82.0004 1.00004 82.0004 1.00004 82.0004 1.00004C82.0004 1.00004 82.0004 1.00004 82.0004 1.00004C82.0004 1.00004 82.0004 1.00004 82.0004 1.00004C82.0004 1.00004 82.0004 1.00004 82.0004 1.00004C82.0004 1.00004 82.0004 1.00004 82.0004 1.00004C82.0004 1.00004 82.0004 1.00004 82.0004 1.00004C82.0004 1.00004 82.0004 1.00004 82.0004 1.00004C82.0004 1.00004 82.0004 1.00004 82.0004 1.00004C82.0004 1.00004 82.0004 1.00004 82.0004 1.00004C82.0004 1.00004 82.0004 1.00004 82.0004 1.00004C82.0004 1.00004 82.0004 1.00004 82.0004 1.00004C82.0004 1.00004 82.0004 1.00004 82.0004 1.00004C82.0004 1.00004 82.0004 1.00004 82.0004 1.00004C82.0004 1.00004 82.0004 1.00004 82.0004 1.00004C82.0004 1.00004 82.0004 1.00004 82.0004 1.00004C82.0004 1.00004 82.0004 1.00004 82.0004 1.00004C82.0004 1.00004 82.0004 1.00004 82.0004 1.00004C82.0004 1.00004 82.0004 1.00004 82.0004 1.00004C82.0004 1.00004 82.0004 1.00004 82.0004 1.00004C82.0004 1.00004 82.0004 1.00004 82.0004 1.00004C82.0004 1.00004 82.0004 1.00004 82.0004 1.00004C82.0004 1.00004 82.0004 1.00004 82.0004 1.00004C82.0004 1.00004 82.0004 1.00004 82.0004 1.00004C82.0004 1.00004 82.0004 1.00004 82.0004 1.00004C82.0004 1.00004 82.0004 1.00004 82.0004 1.00004C82.0004 1.00004 82.0004 1.00004 82.0004 1.00004C82.0004 1.00004 82.0004 1.00004 82.0004 1.00004C82.0004 1.00004 82.0004 1.00004 82.0004 1.00004C82.0004 1.00004 82.0004 1.00004 82.0004 1.00004C82.0004 1.00004 82.0004 1.00004 82.0004 1.00004C82.0004 1.00004 82.0004 1.00004 82.0004 1.00004C82.0004 1.00004 82.0004 1.00004 82.0004 1.00004C82.0004 1.00004 82.0004 1.00004 82.0004 1.00004C82.0004 1.00004 82.0004 1.00004 82.0004 1.00004C82.0004 1.00004 82.0004 1.00004 82.0004 1.00004C82.0004 1.00004 82.0004 1.00003 82.0004 1.00003C82.0004 1.00003 82.0004 1.00003 82.0004 1.00003C82.0004 1.00003 82.0004 1.00003 82.0004 1.00003C82.0004 1.00003 82.0004 1.00003 82.0004 1.00003C82.0004 1.00003 82.0004 1.00003 82.0004 1.00003C82.0004 1.00003 82.0004 1.00003 82.0004 1.00003C82.0004 1.00003 82.0004 1.00003 82.0004 1.00003C82.0004 1.00003 82.0004 1.00003 82.0004 1.00003C82.0004 1.00003 82.0004 1.00003 82.0004 1.00003C82.0004 1.00003 82.0004 1.00003 82.0004 1.00003C82.0004 1.00003 82.0004 1.00003 82.0004 1.00003C82.0004 1.00003 82.0004 1.00003 82.0004 1.00003C82.0004 1.00003 82.0004 1.00003 82.0004 1.00003C82.0004 1.00003 82.0004 1.00003 82.0004 1.00003C82.0004 1.00003 82.0004 1.00003 82.0004 1.00003C82.0004 1.00003 82.0004 1.00003 82.0004 1.00003C82.0004 1.00003 82.0004 1.00003 82.0004 1.00003C82.0004 1.00003 82.0004 1.00003 82.0004 1.00003C82.0004 1.00003 82.0004 1.00003 82.0004 1.00003C82.0004 1.00003 82.0004 1.00003 82.0004 1.00003C82.0004 1.00003 82.0004 1.00003 82.0004 1.00003C82.0004 1.00003 82.0004 1.00003 82.0004 1.00003C82.0004 1.00003 82.0004 1.00003 82.0004 1.00003C82.0004 1.00003 82.0004 1.00003 82.0004 1.00003C82.0004 1.00003 82.0004 1.00003 82.0004 1.00003C82.0004 1.00003 82.0004 1.00003 82.0004 1.00003C82.0004 1.00003 82.0004 1.00003 82.0004 1.00003C82.0004 1.00003 82.0004 1.00003 82.0004 1.00003C82.0004 1.00003 82.0004 1.00003 82.0004 1.00003C82.0004 1.00003 82.0004 1.00003 82.0004 1.00003C82.0004 1.00003 82.0004 1.00003 82.0004 1.00003C82.0004 1.00003 82.0004 1.00003 82.0004 1.00003C82.0004 1.00003 82.0004 1.00003 82.0004 1.00003C82.0004 1.00003 82.0004 1.00003 82.0004 1.00003C82.0004 1.00003 82.0004 1.00003 82.0004 1.00003C82.0004 1.00003 82.0004 1.00003 82.0004 1.00003C82.0004 1.00003 82.0004 1.00003 82.0004 1.00003C82.0004 1.00003 82.0004 1.00003 82.0004 1.00003C82.0004 1.00003 82.0004 1.00003 82.0004 1.00003C82.0004 1.00003 82.0004 1.00003 82.0004 1.00003C82.0004 1.00003 82.0004 1.00003 82.0004 1.00003C82.0004 1.00003 82.0004 1.00003 82.0004 1.00003C82.0004 1.00003 82.0004 1.00003 82.0004 1.00003C82.0004 1.00003 82.0004 1.00003 82.0004 1.00003C82.0004 1.00003 82.0004 1.00003 82.0004 1.00003C82.0004 1.00002 82.0004 1.00002 82.0004 1.00002C82.0004 1.00002 82.0004 1.00002 82.0004 1.00002C82.0004 1.00002 82.0004 1.00002 82.0004 1.00002C82.0004 1.00002 82.0004 1.00002 82.0004 1.00002C82.0004 1.00002 82.0004 1.00002 82.0004 1.00002C82.0004 1.00002 82.0004 1.00002 82.0004 1.00002C82.0004 1.00002 82.0004 1.00002 82.0004 1.00002C82.0004 1.00002 82.0004 1.00002 82.0004 1.00002C82.0004 1.00002 82.0004 1.00002 82.0004 1.00002C82.0004 1.00002 82.0004 1.00002 82.0004 1.00002C82.0004 1.00002 82.0004 1.00002 82.0004 1.00002C82.0004 1.00002 82.0004 1.00002 82.0004 1.00002C82.0004 1.00002 82.0004 1.00002 82.0004 1.00002C82.0004 1.00002 82.0004 1.00002 82.0004 1.00002C82.0004 1.00002 82.0004 1.00002 82.0004 1.00002C82.0004 1.00002 82.0004 1.00002 82.0004 1.00002C82.0004 1.00002 82.0004 1.00002 82.0004 1.00002C82.0004 1.00002 82.0004 1.00002 82.0004 1.00002C82.0004 1.00002 82.0004 1.00002 82.0004 1.00002C82.0004 1.00002 82.0004 1.00002 82.0004 1.00002C82.0004 1.00002 82.0004 1.00002 82.0004 1.00002C82.0004 1.00002 82.0004 1.00002 82.0004 1.00002C82.0004 1.00002 82.0004 1.00002 82.0004 1.00002C82.0004 1.00002 82.0004 1.00002 82.0004 1.00002C82.0004 1.00002 82.0004 1.00002 82.0004 1.00002C82.0004 1.00002 82.0004 1.00002 82.0004 1.00002C82.0004 1.00002 82.0004 1.00002 82.0004 1.00002C82.0004 1.00002 82.0004 1.00002 82.0004 1.00002C82.0004 1.00002 82.0004 1.00002 82.0004 1.00002C82.0004 1.00002 82.0004 1.00002 82.0004 1.00002C82.0004 1.00002 82.0004 1.00002 82.0004 1.00002C82.0004 1.00002 82.0004 1.00002 82.0004 1.00002C82.0004 1.00002 82.0004 1.00002 82.0004 1.00002C82.0004 1.00002 82.0004 1.00002 82.0004 1.00002C82.0004 1.00002 82.0004 1.00002 82.0004 1.00002C82.0004 1.00002 82.0004 1.00002 82.0004 1.00002C82.0004 1.00002 82.0004 1.00002 82.0004 1.00002C82.0004 1.00002 82.0004 1.00002 82.0004 1.00002C82.0004 1.00002 82.0004 1.00002 82.0004 1.00002C82.0004 1.00002 82.0004 1.00002 82.0004 1.00002C82.0004 1.00002 82.0004 1.00002 82.0004 1.00002C82.0004 1.00002 82.0004 1.00002 82.0004 1.00002C82.0004 1.00002 82.0004 1.00002 82.0004 1.00002C82.0004 1.00002 82.0004 1.00002 82.0004 1.00002C82.0004 1.00002 82.0004 1.00002 82.0004 1.00001C82.0004 1.00001 82.0004 1.00001 82.0004 1.00001C82.0004 1.00001 82.0004 1.00001 82.0004 1.00001C82.0004 1.00001 82.0004 1.00001 82.0004 1.00001C82.0004 1.00001 82.0004 1.00001 82.0004 1.00001C82.0004 1.00001 82.0004 1.00001 82.0004 1.00001C82.0004 1.00001 82.0004 1.00001 82.0004 1.00001C82.0004 1.00001 82.0004 1.00001 82.0004 1.00001C82.0004 1.00001 82.0004 1.00001 82.0004 1.00001C82.0004 1.00001 82.0004 1.00001 82.0004 1.00001C82.0004 1.00001 82.0004 1.00001 82.0004 1.00001C82.0004 1.00001 82.0004 1.00001 82.0004 1.00001C82.0004 1.00001 82.0004 1.00001 82.0004 1.00001C82.0004 1.00001 82.0004 1.00001 82.0004 1.00001C82.0004 1.00001 82.0004 1.00001 82.0004 1.00001C82.0004 1.00001 82.0004 1.00001 82.0004 1.00001C82.0004 1.00001 82.0004 1.00001 82.0004 1.00001C82.0004 1.00001 82.0004 1.00001 82.0004 1.00001C82.0004 1.00001 82.0004 1.00001 82.0004 1.00001C82.0004 1.00001 82.0004 1.00001 82.0004 1.00001C82.0004 1.00001 82.0004 1.00001 82.0004 1.00001C82.0004 1.00001 82.0004 1.00001 82.0004 1.00001C82.0004 1.00001 82.0004 1.00001 82.0004 1.00001C82.0004 1.00001 82.0004 1.00001 82.0004 1.00001C82.0004 1.00001 82.0004 1.00001 82.0004 1.00001C82.0004 1.00001 82.0004 1.00001 82.0004 1.00001C82.0004 1.00001 82.0004 1.00001 82.0004 1.00001C82.0004 1.00001 82.0004 1.00001 82.0004 1.00001C82.0004 1.00001 82.0004 1.00001 82.0004 1.00001C82.0004 1.00001 82.0004 1.00001 82.0004 1.00001C82.0004 1.00001 82.0004 1.00001 82.0004 1.00001C82.0004 1.00001 82.0004 1.00001 82.0004 1.00001C82.0004 1.00001 82.0004 1.00001 82.0004 1.00001C82.0004 1.00001 82.0004 1.00001 82.0004 1.00001C82.0004 1.00001 82.0004 1.00001 82.0004 1.00001C82.0004 1.00001 82.0004 1.00001 82.0004 1.00001C82.0004 1.00001 82.0004 1.00001 82.0004 1.00001C82.0004 1.00001 82.0004 1.00001 82.0004 1.00001C82.0004 1.00001 82.0004 1.00001 82.0004 1.00001C82.0004 1.00001 82.0004 1.00001 82.0004 1.00001C82.0004 1.00001 82.0004 1.00001 82.0004 1.00001C82.0004 1.00001 82.0004 1.00001 82.0004 1.00001C82.0004 1.00001 82.0004 1.00001 82.0004 1.00001C82.0004 1.00001 82.0004 1.00001 82.0004 1.00001C82.0004 1.00001 82.0004 1.00001 82.0004 1.00001C82.0004 1.00001 82.0004 1 82.0004 1C82.0004 1 82.0004 1 82.0004 1C82.0004 1 82.0004 1 82.0004 1C82.0004 1 82.0004 1 82.0004 1C82.0004 1 82.0004 1 82.0004 1C82.0004 1 82.0004 1 82.0004 1C82.0004 1 82.0004 1 82.0004 1C82.0004 1 82.0004 1 82.0004 1C82.0004 1 82.0004 1 82.0004 1C82.0004 1 82.0004 1 82.0004 1C82.0004 1 82.0004 1 82.0004 1C82.0004 1 82.0004 1 82.0004 1C82.0004 1 82.0004 1 82.0004 1C82.0004 1 82.0004 1 82.0004 1C82.0004 1 82.0004 1 82.0004 1C82.0004 1 82.0004 1 82.0004 1C82.0004 1 82.0004 1 82.0004 1C82.0004 1 82.0004 1 82.0004 1C82.0004 1 82.0004 1 82.0004 1C82.0004 1 82.0004 1 82.0004 1C82.0004 1 82.0004 1 82.0004 1C82.0004 1 82.0004 1 82.0004 1C82.0004 1 82.0004 1 82.0004 1H80.0004C80.0004 1 80.0004 1 80.0004 1C80.0004 1 80.0004 1 80.0004 1C80.0004 1 80.0004 1 80.0004 1C80.0004 1 80.0004 1 80.0004 1C80.0004 1 80.0004 1 80.0004 1C80.0004 1 80.0004 1 80.0004 1C80.0004 1 80.0004 1 80.0004 1C80.0004 1 80.0004 1 80.0004 1C80.0004 1 80.0004 1 80.0004 1C80.0004 1 80.0004 1 80.0004 1C80.0004 1 80.0004 1 80.0004 1C80.0004 1 80.0004 1 80.0004 1C80.0004 1 80.0004 1 80.0004 1C80.0004 1 80.0004 1 80.0004 1C80.0004 1 80.0004 1 80.0004 1C80.0004 1 80.0004 1 80.0004 1C80.0004 1 80.0004 1 80.0004 1C80.0004 1 80.0004 1 80.0004 1C80.0004 1 80.0004 1 80.0004 1C80.0004 1 80.0004 1 80.0004 1C80.0004 1 80.0004 1 80.0004 1C80.0004 1 80.0004 1 80.0004 1C80.0004 1 80.0004 1.00001 80.0004 1.00001C80.0004 1.00001 80.0004 1.00001 80.0004 1.00001C80.0004 1.00001 80.0004 1.00001 80.0004 1.00001C80.0004 1.00001 80.0004 1.00001 80.0004 1.00001C80.0004 1.00001 80.0004 1.00001 80.0004 1.00001C80.0004 1.00001 80.0004 1.00001 80.0004 1.00001C80.0004 1.00001 80.0004 1.00001 80.0004 1.00001C80.0004 1.00001 80.0004 1.00001 80.0004 1.00001C80.0004 1.00001 80.0004 1.00001 80.0004 1.00001C80.0004 1.00001 80.0004 1.00001 80.0004 1.00001C80.0004 1.00001 80.0004 1.00001 80.0004 1.00001C80.0004 1.00001 80.0004 1.00001 80.0004 1.00001C80.0004 1.00001 80.0004 1.00001 80.0004 1.00001C80.0004 1.00001 80.0004 1.00001 80.0004 1.00001C80.0004 1.00001 80.0004 1.00001 80.0004 1.00001C80.0004 1.00001 80.0004 1.00001 80.0004 1.00001C80.0004 1.00001 80.0004 1.00001 80.0004 1.00001C80.0004 1.00001 80.0004 1.00001 80.0004 1.00001C80.0004 1.00001 80.0004 1.00001 80.0004 1.00001C80.0004 1.00001 80.0004 1.00001 80.0004 1.00001C80.0004 1.00001 80.0004 1.00001 80.0004 1.00001C80.0004 1.00001 80.0004 1.00001 80.0004 1.00001C80.0004 1.00001 80.0004 1.00001 80.0004 1.00001C80.0004 1.00001 80.0004 1.00001 80.0004 1.00001C80.0004 1.00001 80.0004 1.00001 80.0004 1.00001C80.0004 1.00001 80.0004 1.00001 80.0004 1.00001C80.0004 1.00001 80.0004 1.00001 80.0004 1.00001C80.0004 1.00001 80.0004 1.00001 80.0004 1.00001C80.0004 1.00001 80.0004 1.00001 80.0004 1.00001C80.0004 1.00001 80.0004 1.00001 80.0004 1.00001C80.0004 1.00001 80.0004 1.00001 80.0004 1.00001C80.0004 1.00001 80.0004 1.00001 80.0004 1.00001C80.0004 1.00001 80.0004 1.00001 80.0004 1.00001C80.0004 1.00001 80.0004 1.00001 80.0004 1.00001C80.0004 1.00001 80.0004 1.00001 80.0004 1.00001C80.0004 1.00001 80.0004 1.00001 80.0004 1.00001C80.0004 1.00001 80.0004 1.00001 80.0004 1.00001C80.0004 1.00001 80.0004 1.00001 80.0004 1.00001C80.0004 1.00001 80.0004 1.00001 80.0004 1.00001C80.0004 1.00001 80.0004 1.00001 80.0004 1.00001C80.0004 1.00001 80.0004 1.00001 80.0004 1.00001C80.0004 1.00001 80.0004 1.00001 80.0004 1.00001C80.0004 1.00001 80.0004 1.00001 80.0004 1.00001C80.0004 1.00001 80.0004 1.00001 80.0004 1.00001C80.0004 1.00001 80.0004 1.00001 80.0004 1.00001C80.0004 1.00002 80.0004 1.00002 80.0004 1.00002C80.0004 1.00002 80.0004 1.00002 80.0004 1.00002C80.0004 1.00002 80.0004 1.00002 80.0004 1.00002C80.0004 1.00002 80.0004 1.00002 80.0004 1.00002C80.0004 1.00002 80.0004 1.00002 80.0004 1.00002C80.0004 1.00002 80.0004 1.00002 80.0004 1.00002C80.0004 1.00002 80.0004 1.00002 80.0004 1.00002C80.0004 1.00002 80.0004 1.00002 80.0004 1.00002C80.0004 1.00002 80.0004 1.00002 80.0004 1.00002C80.0004 1.00002 80.0004 1.00002 80.0004 1.00002C80.0004 1.00002 80.0004 1.00002 80.0004 1.00002C80.0004 1.00002 80.0004 1.00002 80.0004 1.00002C80.0004 1.00002 80.0004 1.00002 80.0004 1.00002C80.0004 1.00002 80.0004 1.00002 80.0004 1.00002C80.0004 1.00002 80.0004 1.00002 80.0004 1.00002C80.0004 1.00002 80.0004 1.00002 80.0004 1.00002C80.0004 1.00002 80.0004 1.00002 80.0004 1.00002C80.0004 1.00002 80.0004 1.00002 80.0004 1.00002C80.0004 1.00002 80.0004 1.00002 80.0004 1.00002C80.0004 1.00002 80.0004 1.00002 80.0004 1.00002C80.0004 1.00002 80.0004 1.00002 80.0004 1.00002C80.0004 1.00002 80.0004 1.00002 80.0004 1.00002C80.0004 1.00002 80.0004 1.00002 80.0004 1.00002C80.0004 1.00002 80.0004 1.00002 80.0004 1.00002C80.0004 1.00002 80.0004 1.00002 80.0004 1.00002C80.0004 1.00002 80.0004 1.00002 80.0004 1.00002C80.0004 1.00002 80.0004 1.00002 80.0004 1.00002C80.0004 1.00002 80.0004 1.00002 80.0004 1.00002C80.0004 1.00002 80.0004 1.00002 80.0004 1.00002C80.0004 1.00002 80.0004 1.00002 80.0004 1.00002C80.0004 1.00002 80.0004 1.00002 80.0004 1.00002C80.0004 1.00002 80.0004 1.00002 80.0004 1.00002C80.0004 1.00002 80.0004 1.00002 80.0004 1.00002C80.0004 1.00002 80.0004 1.00002 80.0004 1.00002C80.0004 1.00002 80.0004 1.00002 80.0004 1.00002C80.0004 1.00002 80.0004 1.00002 80.0004 1.00002C80.0004 1.00002 80.0004 1.00002 80.0004 1.00002C80.0004 1.00002 80.0004 1.00002 80.0004 1.00002C80.0004 1.00002 80.0004 1.00002 80.0004 1.00002C80.0004 1.00002 80.0004 1.00002 80.0004 1.00002C80.0004 1.00002 80.0004 1.00002 80.0004 1.00002C80.0004 1.00002 80.0004 1.00002 80.0004 1.00002C80.0004 1.00002 80.0004 1.00002 80.0004 1.00002C80.0004 1.00002 80.0004 1.00002 80.0004 1.00002C80.0004 1.00002 80.0004 1.00002 80.0004 1.00003C80.0004 1.00003 80.0004 1.00003 80.0004 1.00003C80.0004 1.00003 80.0004 1.00003 80.0004 1.00003C80.0004 1.00003 80.0004 1.00003 80.0004 1.00003C80.0004 1.00003 80.0004 1.00003 80.0004 1.00003C80.0004 1.00003 80.0004 1.00003 80.0004 1.00003C80.0004 1.00003 80.0004 1.00003 80.0004 1.00003C80.0004 1.00003 80.0004 1.00003 80.0004 1.00003C80.0004 1.00003 80.0004 1.00003 80.0004 1.00003C80.0004 1.00003 80.0004 1.00003 80.0004 1.00003C80.0004 1.00003 80.0004 1.00003 80.0004 1.00003C80.0004 1.00003 80.0004 1.00003 80.0004 1.00003C80.0004 1.00003 80.0004 1.00003 80.0004 1.00003C80.0004 1.00003 80.0004 1.00003 80.0004 1.00003C80.0004 1.00003 80.0004 1.00003 80.0004 1.00003C80.0004 1.00003 80.0004 1.00003 80.0004 1.00003C80.0004 1.00003 80.0004 1.00003 80.0004 1.00003C80.0004 1.00003 80.0004 1.00003 80.0004 1.00003C80.0004 1.00003 80.0004 1.00003 80.0004 1.00003C80.0004 1.00003 80.0004 1.00003 80.0004 1.00003C80.0004 1.00003 80.0004 1.00003 80.0004 1.00003C80.0004 1.00003 80.0004 1.00003 80.0004 1.00003C80.0004 1.00003 80.0004 1.00003 80.0004 1.00003C80.0004 1.00003 80.0004 1.00003 80.0004 1.00003C80.0004 1.00003 80.0004 1.00003 80.0004 1.00003C80.0004 1.00003 80.0004 1.00003 80.0004 1.00003C80.0004 1.00003 80.0004 1.00003 80.0004 1.00003C80.0004 1.00003 80.0004 1.00003 80.0004 1.00003C80.0004 1.00003 80.0004 1.00003 80.0004 1.00003C80.0004 1.00003 80.0004 1.00003 80.0004 1.00003C80.0004 1.00003 80.0004 1.00003 80.0004 1.00003C80.0004 1.00003 80.0004 1.00003 80.0004 1.00003C80.0004 1.00003 80.0004 1.00003 80.0004 1.00003C80.0004 1.00003 80.0004 1.00003 80.0004 1.00003C80.0004 1.00003 80.0004 1.00003 80.0004 1.00003C80.0004 1.00003 80.0004 1.00003 80.0004 1.00003C80.0004 1.00003 80.0004 1.00003 80.0004 1.00003C80.0004 1.00003 80.0004 1.00003 80.0004 1.00003C80.0004 1.00003 80.0004 1.00003 80.0004 1.00003C80.0004 1.00003 80.0004 1.00003 80.0004 1.00003C80.0004 1.00003 80.0004 1.00003 80.0004 1.00003C80.0004 1.00003 80.0004 1.00003 80.0004 1.00003C80.0004 1.00003 80.0004 1.00003 80.0004 1.00003C80.0004 1.00003 80.0004 1.00003 80.0004 1.00003C80.0004 1.00003 80.0004 1.00003 80.0004 1.00003C80.0004 1.00003 80.0004 1.00004 80.0004 1.00004C80.0004 1.00004 80.0004 1.00004 80.0004 1.00004C80.0004 1.00004 80.0004 1.00004 80.0004 1.00004C80.0004 1.00004 80.0004 1.00004 80.0004 1.00004C80.0004 1.00004 80.0004 1.00004 80.0004 1.00004C80.0004 1.00004 80.0004 1.00004 80.0004 1.00004C80.0004 1.00004 80.0004 1.00004 80.0004 1.00004C80.0004 1.00004 80.0004 1.00004 80.0004 1.00004C80.0004 1.00004 80.0004 1.00004 80.0004 1.00004C80.0004 1.00004 80.0004 1.00004 80.0004 1.00004C80.0004 1.00004 80.0004 1.00004 80.0004 1.00004C80.0004 1.00004 80.0004 1.00004 80.0004 1.00004C80.0004 1.00004 80.0004 1.00004 80.0004 1.00004C80.0004 1.00004 80.0004 1.00004 80.0004 1.00004C80.0004 1.00004 80.0004 1.00004 80.0004 1.00004C80.0004 1.00004 80.0004 1.00004 80.0004 1.00004C80.0004 1.00004 80.0004 1.00004 80.0004 1.00004C80.0004 1.00004 80.0004 1.00004 80.0004 1.00004C80.0004 1.00004 80.0004 1.00004 80.0004 1.00004C80.0004 1.00004 80.0004 1.00004 80.0004 1.00004C80.0004 1.00004 80.0004 1.00004 80.0004 1.00004C80.0004 1.00004 80.0004 1.00004 80.0004 1.00004C80.0004 1.00004 80.0004 1.00004 80.0004 1.00004C80.0004 1.00004 80.0004 1.00004 80.0004 1.00004C80.0004 1.00004 80.0004 1.00004 80.0004 1.00004C80.0004 1.00004 80.0004 1.00004 80.0004 1.00004C80.0004 1.00004 80.0004 1.00004 80.0004 1.00004C80.0004 1.00004 80.0004 1.00004 80.0004 1.00004C80.0004 1.00004 80.0004 1.00004 80.0004 1.00004C80.0004 1.00004 80.0004 1.00004 80.0004 1.00004C80.0004 1.00004 80.0004 1.00004 80.0004 1.00004C80.0004 1.00004 80.0004 1.00004 80.0004 1.00004C80.0004 1.00004 80.0004 1.00004 80.0004 1.00004C80.0004 1.00004 80.0004 1.00004 80.0004 1.00004C80.0004 1.00004 80.0004 1.00004 80.0004 1.00004C80.0004 1.00004 80.0004 1.00004 80.0004 1.00004C80.0004 1.00004 80.0004 1.00004 80.0004 1.00004C80.0004 1.00004 80.0004 1.00004 80.0004 1.00004C80.0004 1.00004 80.0004 1.00004 80.0004 1.00004C80.0004 1.00004 80.0004 1.00004 80.0004 1.00004C80.0004 1.00004 80.0004 1.00004 80.0004 1.00004C80.0004 1.00004 80.0004 1.00004 80.0004 1.00004C80.0004 1.00004 80.0004 1.00004 80.0004 1.00004C80.0004 1.00004 80.0004 1.00004 80.0004 1.00004C80.0004 1.00004 80.0004 1.00004 80.0004 1.00004C80.0004 1.00005 80.0004 1.00005 80.0004 1.00005C80.0004 1.00005 80.0004 1.00005 80.0004 1.00005C80.0004 1.00005 80.0004 1.00005 80.0004 1.00005C80.0004 1.00005 80.0004 1.00005 80.0004 1.00005C80.0004 1.00005 80.0004 1.00005 80.0004 1.00005C80.0004 1.00005 80.0004 1.00005 80.0004 1.00005C80.0004 1.00005 80.0004 1.00005 80.0004 1.00005C80.0004 1.00005 80.0004 1.00005 80.0004 1.00005C80.0004 1.00005 80.0004 1.00005 80.0004 1.00005C80.0004 1.00005 80.0004 1.00005 80.0004 1.00005C80.0004 1.00005 80.0004 1.00005 80.0004 1.00005C80.0004 1.00005 80.0004 1.00005 80.0004 1.00005C80.0004 1.00005 80.0004 1.00005 80.0004 1.00005C80.0004 1.00005 80.0004 1.00005 80.0004 1.00005C80.0004 1.00005 80.0004 1.00005 80.0004 1.00005C80.0004 1.00005 80.0004 1.00005 80.0004 1.00005C80.0004 1.00005 80.0004 1.00005 80.0004 1.00005C80.0004 1.00005 80.0004 1.00005 80.0004 1.00005C80.0004 1.00005 80.0004 1.00005 80.0004 1.00005C80.0004 1.00005 80.0004 1.00005 80.0004 1.00005C80.0004 1.00005 80.0004 1.00005 80.0004 1.00005C80.0004 1.00005 80.0004 1.00005 80.0004 1.00005C80.0004 1.00005 80.0004 1.00005 80.0004 1.00005C80.0004 1.00005 80.0004 1.00005 80.0004 1.00005C80.0004 1.00005 80.0004 1.00005 80.0004 1.00005C80.0004 1.00005 80.0004 1.00005 80.0004 1.00005C80.0004 1.00005 80.0004 1.00005 80.0004 1.00005C80.0004 1.00005 80.0004 1.00005 80.0004 1.00005C80.0004 1.00005 80.0004 1.00005 80.0004 1.00005C80.0004 1.00005 80.0004 1.00005 80.0004 1.00005C80.0004 1.00005 80.0004 1.00005 80.0004 1.00005C80.0004 1.00005 80.0004 1.00005 80.0004 1.00005C80.0004 1.00005 80.0004 1.00005 80.0004 1.00005C80.0004 1.00005 80.0004 1.00005 80.0004 1.00005C80.0004 1.00005 80.0004 1.00005 80.0004 1.00005C80.0004 1.00005 80.0004 1.00005 80.0004 1.00005C80.0004 1.00005 80.0004 1.00005 80.0004 1.00005C80.0004 1.00005 80.0004 1.00005 80.0004 1.00005C80.0004 1.00005 80.0004 1.00005 80.0004 1.00005C80.0004 1.00005 80.0004 1.00005 80.0004 1.00005C80.0004 1.00005 80.0004 1.00005 80.0004 1.00005C80.0004 1.00005 80.0004 1.00005 80.0004 1.00005C80.0004 1.00005 80.0004 1.00005 80.0004 1.00005C80.0004 1.00005 80.0004 1.00005 80.0004 1.00005C80.0004 1.00005 80.0004 1.00005 80.0004 1.00005C80.0004 1.00006 80.0004 1.00006 80.0004 1.00006C80.0004 1.00006 80.0004 1.00006 80.0004 1.00006C80.0004 1.00006 80.0004 1.00006 80.0004 1.00006C80.0004 1.00006 80.0004 1.00006 80.0004 1.00006C80.0004 1.00006 80.0004 1.00006 80.0004 1.00006C80.0004 1.00006 80.0004 1.00006 80.0004 1.00006C80.0004 1.00006 80.0004 1.00006 80.0004 1.00006C80.0004 1.00006 80.0004 1.00006 80.0004 1.00006C80.0004 1.00006 80.0004 1.00006 80.0004 1.00006C80.0004 1.00006 80.0004 1.00006 80.0004 1.00006C80.0004 1.00006 80.0004 1.00006 80.0004 1.00006C80.0004 1.00006 80.0004 1.00006 80.0004 1.00006C80.0004 1.00006 80.0004 1.00006 80.0004 1.00006C80.0004 1.00006 80.0004 1.00006 80.0004 1.00006C80.0004 1.00006 80.0004 1.00006 80.0004 1.00006C80.0004 1.00006 80.0004 1.00006 80.0004 1.00006C80.0004 1.00006 80.0004 1.00006 80.0004 1.00006C80.0004 1.00006 80.0004 1.00006 80.0004 1.00006C80.0004 1.00006 80.0004 1.00006 80.0004 1.00006C80.0004 1.00006 80.0004 1.00006 80.0004 1.00006C80.0004 1.00006 80.0004 1.00006 80.0004 1.00006C80.0004 1.00006 80.0004 1.00006 80.0004 1.00006C80.0004 1.00006 80.0004 1.00006 80.0004 1.00006C80.0004 1.00006 80.0004 1.00006 80.0004 1.00006C80.0004 1.00006 80.0004 1.00006 80.0004 1.00006C80.0004 1.00006 80.0004 1.00006 80.0004 1.00006C80.0004 1.00006 80.0004 1.00006 80.0004 1.00006C80.0004 1.00006 80.0004 1.00006 80.0004 1.00006C80.0004 1.00006 80.0004 1.00006 80.0004 1.00006C80.0004 1.00006 80.0004 1.00006 80.0004 1.00006C80.0004 1.00006 80.0004 1.00006 80.0004 1.00006C80.0004 1.00006 80.0004 1.00006 80.0004 1.00006C80.0004 1.00006 80.0004 1.00006 80.0004 1.00006C80.0004 1.00006 80.0004 1.00006 80.0004 1.00006C80.0004 1.00006 80.0004 1.00006 80.0004 1.00006C80.0004 1.00006 80.0004 1.00006 80.0004 1.00006C80.0004 1.00006 80.0004 1.00006 80.0004 1.00006C80.0004 1.00006 80.0004 1.00006 80.0004 1.00006C80.0004 1.00006 80.0004 1.00006 80.0004 1.00006C80.0004 1.00006 80.0004 1.00006 80.0004 1.00006C80.0004 1.00006 80.0004 1.00006 80.0004 1.00006C80.0004 1.00006 80.0004 1.00006 80.0004 1.00006C80.0004 1.00006 80.0004 1.00006 80.0004 1.00006C80.0004 1.00006 80.0004 1.00006 80.0004 1.00006C80.0004 1.00006 80.0004 1.00006 80.0004 1.00007C80.0004 1.00007 80.0004 1.00007 80.0004 1.00007C80.0004 1.00007 80.0004 1.00007 80.0004 1.00007C80.0004 1.00007 80.0004 1.00007 80.0004 1.00007C80.0004 1.00007 80.0004 1.00007 80.0004 1.00007C80.0004 1.00007 80.0004 1.00007 80.0004 1.00007C80.0004 1.00007 80.0004 1.00007 80.0004 1.00007C80.0004 1.00007 80.0004 1.00007 80.0004 1.00007C80.0004 1.00007 80.0004 1.00007 80.0004 1.00007C80.0004 1.00007 80.0004 1.00007 80.0004 1.00007C80.0004 1.00007 80.0004 1.00007 80.0004 1.00007C80.0004 1.00007 80.0004 1.00007 80.0004 1.00007C80.0004 1.00007 80.0004 1.00007 80.0004 1.00007C80.0004 1.00007 80.0004 1.00007 80.0004 1.00007C80.0004 1.00007 80.0004 1.00007 80.0004 1.00007C80.0004 1.00007 80.0004 1.00007 80.0004 1.00007C80.0004 1.00007 80.0004 1.00007 80.0004 1.00007C80.0004 1.00007 80.0004 1.00007 80.0004 1.00007C80.0004 1.00007 80.0004 1.00007 80.0004 1.00007C80.0004 1.00007 80.0004 1.00007 80.0004 1.00007C80.0004 1.00007 80.0004 1.00007 80.0004 1.00007C80.0004 1.00007 80.0004 1.00007 80.0004 1.00007C80.0004 1.00007 80.0004 1.00007 80.0004 1.00007C80.0004 1.00007 80.0004 1.00007 80.0004 1.00007C80.0004 1.00007 80.0004 1.00007 80.0004 1.00007C80.0004 1.00007 80.0004 1.00007 80.0004 1.00007C80.0004 1.00007 80.0004 1.00007 80.0004 1.00007C80.0004 1.00007 80.0004 1.00007 80.0004 1.00007C80.0004 1.00007 80.0004 1.00007 80.0004 1.00007C80.0004 1.00007 80.0004 1.00007 80.0004 1.00007C80.0004 1.00007 80.0004 1.00007 80.0004 1.00007C80.0004 1.00007 80.0004 1.00007 80.0004 1.00007C80.0004 1.00007 80.0004 1.00007 80.0004 1.00007C80.0004 1.00007 80.0004 1.00007 80.0004 1.00007C80.0004 1.00007 80.0004 1.00007 80.0004 1.00007C80.0004 1.00007 80.0004 1.00007 80.0004 1.00007C80.0004 1.00007 80.0004 1.00007 80.0004 1.00007C80.0004 1.00007 80.0004 1.00007 80.0004 1.00007C80.0004 1.00007 80.0004 1.00007 80.0004 1.00007C80.0004 1.00007 80.0004 1.00007 80.0004 1.00007C80.0004 1.00007 80.0004 1.00007 80.0004 1.00007C80.0004 1.00007 80.0004 1.00007 80.0004 1.00007C80.0004 1.00007 80.0004 1.00007 80.0004 1.00007C80.0004 1.00007 80.0004 1.00007 80.0004 1.00007C80.0004 1.00007 80.0004 1.00007 80.0004 1.00007C80.0004 1.00007 80.0004 1.00008 80.0004 1.00008C80.0004 1.00008 80.0004 1.00008 80.0004 1.00008C80.0004 1.00008 80.0004 1.00008 80.0004 1.00008C80.0004 1.00008 80.0004 1.00008 80.0004 1.00008C80.0004 1.00008 80.0004 1.00008 80.0004 1.00008C80.0004 1.00008 80.0004 1.00008 80.0004 1.00008C80.0004 1.00008 80.0004 1.00008 80.0004 1.00008C80.0004 1.00008 80.0004 1.00008 80.0004 1.00008C80.0004 1.00008 80.0004 1.00008 80.0004 1.00008C80.0004 1.00008 80.0004 1.00008 80.0004 1.00008C80.0004 1.00008 80.0004 1.00008 80.0004 1.00008C80.0004 1.00008 80.0004 1.00008 80.0004 1.00008C80.0004 1.00008 80.0004 1.00008 80.0004 1.00008C80.0004 1.00008 80.0004 1.00008 80.0004 1.00008C80.0004 1.00008 80.0004 1.00008 80.0004 1.00008C80.0004 1.00008 80.0004 1.00008 80.0004 1.00008C80.0004 1.00008 80.0004 1.00008 80.0004 1.00008C80.0004 1.00008 80.0004 1.00008 80.0004 1.00008C80.0004 1.00008 80.0004 1.00008 80.0004 1.00008C80.0004 1.00008 80.0004 1.00008 80.0004 1.00008C80.0004 1.00008 80.0004 1.00008 80.0004 1.00008C80.0004 1.00008 80.0004 1.00008 80.0004 1.00008C80.0004 1.00008 80.0004 1.00008 80.0004 1.00008C80.0004 1.00008 80.0004 1.00008 80.0004 1.00008C80.0004 1.00008 80.0004 1.00008 80.0004 1.00008C80.0004 1.00008 80.0004 1.00008 80.0004 1.00008C80.0004 1.00008 80.0004 1.00008 80.0004 1.00008C80.0004 1.00008 80.0004 1.00008 80.0004 1.00008C80.0004 1.00008 80.0004 1.00008 80.0004 1.00008C80.0004 1.00008 80.0004 1.00008 80.0004 1.00008C80.0004 1.00008 80.0004 1.00008 80.0004 1.00008C80.0004 1.00008 80.0004 1.00008 80.0004 1.00008C80.0004 1.00008 80.0004 1.00008 80.0004 1.00008C80.0004 1.00008 80.0004 1.00008 80.0004 1.00008C80.0004 1.00008 80.0004 1.00008 80.0004 1.00008C80.0004 1.00008 80.0004 1.00008 80.0004 1.00008C80.0004 1.00008 80.0004 1.00008 80.0004 1.00008C80.0004 1.00008 80.0004 1.00008 80.0004 1.00008C80.0004 1.00008 80.0004 1.00008 80.0004 1.00008C80.0004 1.00008 80.0004 1.00008 80.0004 1.00008C80.0004 1.00008 80.0004 1.00008 80.0004 1.00008C80.0004 1.00008 80.0004 1.00008 80.0004 1.00008C80.0004 1.00008 80.0004 1.00008 80.0004 1.00008C80.0004 1.00008 80.0004 1.00008 80.0004 1.00008C80.0004 1.00008 80.0004 1.00008 80.0004 1.00008C80.0004 1.00009 80.0004 1.00009 80.0004 1.00009C80.0004 1.00009 80.0004 1.00009 80.0004 1.00009C80.0004 1.00009 80.0004 1.00009 80.0004 1.00009C80.0004 1.00009 80.0004 1.00009 80.0004 1.00009C80.0004 1.00009 80.0004 1.00009 80.0004 1.00009C80.0004 1.00009 80.0004 1.00009 80.0004 1.00009C80.0004 1.00009 80.0004 1.00009 80.0004 1.00009C80.0004 1.00009 80.0004 1.00009 80.0004 1.00009C80.0004 1.00009 80.0004 1.00009 80.0004 1.00009C80.0004 1.00009 80.0004 1.00009 80.0004 1.00009C80.0004 1.00009 80.0004 1.00009 80.0004 1.00009C80.0004 1.00009 80.0004 1.00009 80.0004 1.00009C80.0004 1.00009 80.0004 1.00009 80.0004 1.00009C80.0004 1.00009 80.0004 1.00009 80.0004 1.00009C80.0004 1.00009 80.0004 1.00009 80.0004 1.00009C80.0004 1.00009 80.0004 1.00009 80.0004 1.00009C80.0004 1.00009 80.0004 1.00009 80.0004 1.00009C80.0004 1.00009 80.0004 1.00009 80.0004 1.00009C80.0004 1.00009 80.0004 1.00009 80.0004 1.00009C80.0004 1.00009 80.0004 1.00009 80.0004 1.00009C80.0004 1.00009 80.0004 1.00009 80.0004 1.00009C80.0004 1.00009 80.0004 1.00009 80.0004 1.00009C80.0004 1.00009 80.0004 1.00009 80.0004 1.00009C80.0004 1.00009 80.0004 1.00009 80.0004 1.00009C80.0004 1.00009 80.0004 1.00009 80.0004 1.00009C80.0004 1.00009 80.0004 1.00009 80.0004 1.00009C80.0004 1.00009 80.0004 1.00009 80.0004 1.00009C80.0004 1.00009 80.0004 1.00009 80.0004 1.00009C80.0004 1.00009 80.0004 1.00009 80.0004 1.00009C80.0004 1.00009 80.0004 1.00009 80.0004 1.00009C80.0004 1.00009 80.0004 1.00009 80.0004 1.00009C80.0004 1.00009 80.0004 1.00009 80.0004 1.00009C80.0004 1.00009 80.0004 1.00009 80.0004 1.00009C80.0004 1.00009 80.0004 1.00009 80.0004 1.00009C80.0004 1.00009 80.0004 1.00009 80.0004 1.00009C80.0004 1.00009 80.0004 1.00009 80.0004 1.00009C80.0004 1.00009 80.0004 1.00009 80.0004 1.00009C80.0004 1.00009 80.0004 1.00009 80.0004 1.00009C80.0004 1.00009 80.0004 1.00009 80.0004 1.00009C80.0004 1.00009 80.0004 1.00009 80.0004 1.00009C80.0004 1.00009 80.0004 1.00009 80.0004 1.00009C80.0004 1.00009 80.0004 1.00009 80.0004 1.00009C80.0004 1.00009 80.0004 1.00009 80.0004 1.00009C80.0004 1.00009 80.0004 1.00009 80.0004 1.00009C80.0004 1.00009 80.0004 1.00009 80.0004 1.00009C80.0004 1.0001 80.0004 1.0001 80.0004 1.0001C80.0004 1.0001 80.0004 1.0001 80.0004 1.0001C80.0004 1.0001 80.0004 1.0001 80.0004 1.0001C80.0004 1.0001 80.0004 1.0001 80.0004 1.0001C80.0004 1.0001 80.0004 1.0001 80.0004 1.0001C80.0004 1.0001 80.0004 1.0001 80.0004 1.0001C80.0004 1.0001 80.0004 1.0001 80.0004 1.0001C80.0004 1.0001 80.0004 1.0001 80.0004 1.0001C80.0004 1.0001 80.0004 1.0001 80.0004 1.0001C80.0004 1.0001 80.0004 1.0001 80.0004 1.0001C80.0004 1.0001 80.0004 1.0001 80.0004 1.0001C80.0004 1.0001 80.0004 1.0001 80.0004 1.0001C80.0004 1.0001 80.0004 1.0001 80.0004 1.0001C80.0004 1.0001 80.0004 1.0001 80.0004 1.0001C80.0004 1.0001 80.0004 1.0001 80.0004 1.0001C80.0004 1.0001 80.0004 1.0001 80.0004 1.0001C80.0004 1.0001 80.0004 1.0001 80.0004 1.0001C80.0004 1.0001 80.0004 1.0001 80.0004 1.0001C80.0004 1.0001 80.0004 1.0001 80.0004 1.0001C80.0004 1.0001 80.0004 1.0001 80.0004 1.0001C80.0004 1.0001 80.0004 1.0001 80.0004 1.0001C80.0004 1.0001 80.0004 1.0001 80.0004 1.0001C80.0004 1.0001 80.0004 1.0001 80.0004 1.0001C80.0004 1.0001 80.0004 1.0001 80.0004 1.0001C80.0004 1.0001 80.0004 1.0001 80.0004 1.0001C80.0004 1.0001 80.0004 1.0001 80.0004 1.0001C80.0004 1.0001 80.0004 1.0001 80.0004 1.0001C80.0004 1.0001 80.0004 1.0001 80.0004 1.0001C80.0004 1.0001 80.0004 1.0001 80.0004 1.0001C80.0004 1.0001 80.0004 1.0001 80.0004 1.0001C80.0004 1.0001 80.0004 1.0001 80.0004 1.0001C80.0004 1.0001 80.0004 1.0001 80.0004 1.0001C80.0004 1.0001 80.0004 1.0001 80.0004 1.0001C80.0004 1.0001 80.0004 1.0001 80.0004 1.0001C80.0004 1.0001 80.0004 1.0001 80.0004 1.0001C80.0004 1.0001 80.0004 1.0001 80.0004 1.0001C80.0004 1.0001 80.0004 1.0001 80.0004 1.0001C80.0004 1.0001 80.0004 1.0001 80.0004 1.0001C80.0004 1.0001 80.0004 1.0001 80.0004 1.0001C80.0004 1.0001 80.0004 1.0001 80.0004 1.0001C80.0004 1.0001 80.0004 1.0001 80.0004 1.0001C80.0004 1.0001 80.0004 1.0001 80.0004 1.0001C80.0004 1.0001 80.0004 1.0001 80.0004 1.0001C80.0004 1.0001 80.0004 1.0001 80.0004 1.0001C80.0004 1.0001 80.0004 1.0001 80.0004 1.00011C80.0004 1.00011 80.0004 1.00011 80.0004 1.00011C80.0004 1.00011 80.0004 1.00011 80.0004 1.00011C80.0004 1.00011 80.0004 1.00011 80.0004 1.00011C80.0004 1.00011 80.0004 1.00011 80.0004 1.00011C80.0004 1.00011 80.0004 1.00011 80.0004 1.00011C80.0004 1.00011 80.0004 1.00011 80.0004 1.00011C80.0004 1.00011 80.0004 1.00011 80.0004 1.00011C80.0004 1.00011 80.0004 1.00011 80.0004 1.00011C80.0004 1.00011 80.0004 1.00011 80.0004 1.00011C80.0004 1.00011 80.0004 1.00011 80.0004 1.00011C80.0004 1.00011 80.0004 1.00011 80.0004 1.00011C80.0004 1.00011 80.0004 1.00011 80.0004 1.00011C80.0004 1.00011 80.0004 1.00011 80.0004 1.00011C80.0004 1.00011 80.0004 1.00011 80.0004 1.00011C80.0004 1.00011 80.0004 1.00011 80.0004 1.00011C80.0004 1.00011 80.0004 1.00011 80.0004 1.00011C80.0004 1.00011 80.0004 1.00011 80.0004 1.00011C80.0004 1.00011 80.0004 1.00011 80.0004 1.00011C80.0004 1.00011 80.0004 1.00011 80.0004 1.00011C80.0004 1.00011 80.0004 1.00011 80.0004 1.00011C80.0004 1.00011 80.0004 1.00011 80.0004 1.00011C80.0004 1.00011 80.0004 1.00011 80.0004 1.00011C80.0004 1.00011 80.0004 1.00011 80.0004 1.00011C80.0004 1.00011 80.0004 1.00011 80.0004 1.00011C80.0004 1.00011 80.0004 1.00011 80.0004 1.00011C80.0004 1.00011 80.0004 1.00011 80.0004 1.00011C80.0004 1.00011 80.0004 1.00011 80.0004 1.00011C80.0004 1.00011 80.0004 1.00011 80.0004 1.00011C80.0004 1.00011 80.0004 1.00011 80.0004 1.00011C80.0004 1.00011 80.0004 1.00011 80.0004 1.00011C80.0004 1.00011 80.0004 1.00011 80.0004 1.00011C80.0004 1.00011 80.0004 1.00011 80.0004 1.00011C80.0004 1.00011 80.0004 1.00011 80.0004 1.00011C80.0004 1.00011 80.0004 1.00011 80.0004 1.00011C80.0004 1.00011 80.0004 1.00011 80.0004 1.00011C80.0004 1.00011 80.0004 1.00011 80.0004 1.00011C80.0004 1.00011 80.0004 1.00011 80.0004 1.00011C80.0004 1.00011 80.0004 1.00011 80.0004 1.00011C80.0004 1.00011 80.0004 1.00011 80.0004 1.00011C80.0004 1.00011 80.0004 1.00011 80.0004 1.00011C80.0004 1.00011 80.0004 1.00011 80.0004 1.00011C80.0004 1.00011 80.0004 1.00011 80.0004 1.00011H82.0004ZM101 20.3905C90.5251 20.3905 82.0004 11.7274 82.0004 1.00011H80.0004C80.0004 12.7954 89.3843 22.3905 101 22.3905V20.3905Z" fill="black"/>
</svg>
