<svg width="59" height="64" viewBox="0 0 59 64" fill="none" xmlns="http://www.w3.org/2000/svg">
<path fill-rule="evenodd" clip-rule="evenodd" d="M13.1251 7H27.1251V1H31.1251V7H45.1251V1H49.1251V7H57.1251V63H1.12512V7H9.12512V1H13.1251V7Z" fill="#01B4BC"/>
<path d="M27.1251 7V8H28.1251V7H27.1251ZM13.1251 7H12.1251V8H13.1251V7ZM27.1251 1V0H26.1251V1H27.1251ZM31.1251 1H32.1251V0H31.1251V1ZM31.1251 7H30.1251V8H31.1251V7ZM45.1251 7V8H46.1251V7H45.1251ZM45.1251 1V0H44.1251V1H45.1251ZM49.1251 1H50.1251V0H49.1251V1ZM49.1251 7H48.1251V8H49.1251V7ZM57.1251 7H58.1251V6H57.1251V7ZM57.1251 63V64H58.1251V63H57.1251ZM1.12512 63H0.125122V64H1.12512V63ZM1.12512 7V6H0.125122V7H1.12512ZM9.12512 7V8H10.1251V7H9.12512ZM9.12512 1V0H8.12512V1H9.12512ZM13.1251 1H14.1251V0H13.1251V1ZM27.1251 6H13.1251V8H27.1251V6ZM26.1251 1V7H28.1251V1H26.1251ZM31.1251 0H27.1251V2H31.1251V0ZM32.1251 7V1H30.1251V7H32.1251ZM45.1251 6H31.1251V8H45.1251V6ZM46.1251 7V1H44.1251V7H46.1251ZM45.1251 2H49.1251V0H45.1251V2ZM48.1251 1V7H50.1251V1H48.1251ZM57.1251 6H49.1251V8H57.1251V6ZM58.1251 63V7H56.1251V63H58.1251ZM1.12512 64H57.1251V62H1.12512V64ZM0.125122 7V63H2.12512V7H0.125122ZM9.12512 6H1.12512V8H9.12512V6ZM8.12512 1V7H10.1251V1H8.12512ZM13.1251 0H9.12512V2H13.1251V0ZM14.1251 7V1H12.1251V7H14.1251Z" fill="black"/>
<line x1="57.25" y1="16" x2="1" y2="16" stroke="black" stroke-width="2"/>
<rect x="25.3751" y="41.375" width="7.5" height="7.5" fill="black"/>
<rect x="10.0001" y="41.375" width="7.5" height="7.5" fill="black"/>
<rect x="40.7501" y="41.375" width="7.5" height="7.5" fill="black"/>
<rect x="25.3751" y="26.375" width="7.5" height="7.5" fill="black"/>
<rect x="40.7501" y="26.375" width="7.5" height="7.5" fill="black"/>
<path d="M10.0001 26.375H17.5001V33.875H10.0001V26.375Z" fill="black"/>
</svg>
