<svg width="62" height="79" viewBox="0 0 62 79" fill="none" xmlns="http://www.w3.org/2000/svg">
<path fill-rule="evenodd" clip-rule="evenodd" d="M31.2073 4.86874L35.4574 6.00757C34.8164 8.40056 36.1994 10.8502 38.5465 11.4792C40.8937 12.1081 43.3163 10.6781 43.9576 8.28518L48.2077 9.42399C47.5666 11.817 48.9496 14.2666 51.2968 14.8955C53.644 15.5245 56.0665 14.0945 56.7078 11.7016L60.958 12.8404L43.5426 77.8357L39.2924 76.6969L39.2924 76.6968C39.9336 74.3038 38.5506 71.8539 36.2034 71.225C33.8561 70.596 31.4335 72.0261 30.7923 74.4192L30.7923 74.4193L26.5421 73.2805C26.5421 73.2804 26.5422 73.2804 26.5422 73.2803C27.1834 70.8872 25.8004 68.4374 23.4531 67.8085C21.1059 67.1795 18.6833 68.6096 18.042 71.0027C18.042 71.0028 18.042 71.0028 18.042 71.0029L13.7918 69.8641L13.7919 69.8638C14.4331 67.4707 13.0501 65.0209 10.7028 64.392C8.35558 63.763 5.93295 65.1931 5.29173 67.5862L5.29166 67.5864L1.04183 66.4477L18.4573 1.45239L22.7071 2.59113C22.0661 4.9841 23.4491 7.43374 25.7962 8.06266C28.1434 8.69158 30.5659 7.26162 31.2073 4.86874Z" fill="#F9AB00"/>
<path d="M35.4574 6.00757L36.2784 6.2275C36.3999 5.77411 36.1308 5.3081 35.6774 5.18662L35.4574 6.00757ZM31.2073 4.86874L31.4272 4.04779C30.9739 3.9263 30.5078 4.19534 30.3863 4.64871L31.2073 4.86874ZM43.9576 8.28518L44.1776 7.46422C43.7242 7.34274 43.2581 7.61178 43.1366 8.06516L43.9576 8.28518ZM48.2077 9.42399L49.0286 9.64391C49.1501 9.19052 48.881 8.72452 48.4276 8.60303L48.2077 9.42399ZM56.7078 11.7016L56.9278 10.8806C56.4744 10.7592 56.0084 11.0282 55.8869 11.4816L56.7078 11.7016ZM60.958 12.8404L61.779 13.0604C61.9005 12.607 61.6314 12.141 61.178 12.0195L60.958 12.8404ZM43.5426 77.8357L43.3226 78.6567C43.776 78.7782 44.242 78.5091 44.3635 78.0557L43.5426 77.8357ZM39.2924 76.6969L38.4714 76.4769C38.4131 76.6947 38.4436 76.9267 38.5563 77.1219C38.6691 77.3171 38.8547 77.4595 39.0724 77.5179L39.2924 76.6969ZM39.2924 76.6968L40.1134 76.9168L39.2924 76.6968ZM30.7923 74.4193L30.5723 75.2403C31.0257 75.3617 31.4917 75.0927 31.6132 74.6393L30.7923 74.4193ZM26.5421 73.2805L25.7212 73.0605C25.5997 73.5139 25.8688 73.98 26.3222 74.1014L26.5421 73.2805ZM18.042 71.0029L17.822 71.8238C18.2754 71.9453 18.7415 71.6763 18.8629 71.2229L18.042 71.0029ZM13.7918 69.8641L12.9709 69.6441C12.8494 70.0975 13.1184 70.5635 13.5718 70.685L13.7918 69.8641ZM5.29173 67.5862L4.47077 67.3662L5.29173 67.5862ZM5.29166 67.5864L5.07169 68.4074C5.28942 68.4657 5.52141 68.4352 5.71662 68.3225C5.91183 68.2098 6.05428 68.0241 6.11262 67.8064L5.29166 67.5864ZM1.04183 66.4477L0.220878 66.2277C0.0993886 66.6811 0.368458 67.1472 0.821859 67.2687L1.04183 66.4477ZM18.4573 1.45239L18.6772 0.631437C18.2238 0.509949 17.7578 0.779017 17.6363 1.23242L18.4573 1.45239ZM22.7071 2.59113L23.5281 2.81105C23.6495 2.35767 23.3805 1.89166 22.9271 1.77018L22.7071 2.59113ZM35.6774 5.18662L31.4272 4.04779L30.9873 5.6897L35.2375 6.82853L35.6774 5.18662ZM38.7665 10.6582C36.8876 10.1548 35.7548 8.18213 36.2784 6.2275L34.6365 5.78764C33.878 8.61899 35.5111 11.5457 38.3266 12.3001L38.7665 10.6582ZM43.1366 8.06516C42.6128 10.0197 40.6454 11.1617 38.7665 10.6582L38.3266 12.3001C41.142 13.0545 44.0197 11.3365 44.7785 8.5052L43.1366 8.06516ZM48.4276 8.60303L44.1776 7.46422L43.7376 9.10614L47.9877 10.2449L48.4276 8.60303ZM51.5168 14.0746C49.6379 13.5711 48.505 11.5985 49.0286 9.64391L47.3867 9.20406C46.6282 12.0354 48.2614 14.9621 51.0768 15.7165L51.5168 14.0746ZM55.8869 11.4816C55.363 13.4361 53.3957 14.578 51.5168 14.0746L51.0768 15.7165C53.8923 16.4709 56.7699 14.7529 57.5288 11.9216L55.8869 11.4816ZM61.178 12.0195L56.9278 10.8806L56.4878 12.5226L60.738 13.6614L61.178 12.0195ZM44.3635 78.0557L61.779 13.0604L60.1371 12.6205L42.7216 77.6158L44.3635 78.0557ZM39.0724 77.5179L43.3226 78.6567L43.7625 77.0148L39.5124 75.876L39.0724 77.5179ZM38.4715 76.4768L38.4714 76.4769L40.1134 76.9169L40.1134 76.9168L38.4715 76.4768ZM35.9834 72.0459C37.8624 72.5494 38.9952 74.5221 38.4715 76.4768L40.1134 76.9168C40.8721 74.0854 39.2389 71.1585 36.4234 70.404L35.9834 72.0459ZM31.6132 74.6392C32.137 72.6845 34.1044 71.5425 35.9834 72.0459L36.4234 70.404C33.6078 69.6496 30.73 71.3678 29.9713 74.1992L31.6132 74.6392ZM31.6132 74.6393L31.6132 74.6392L29.9713 74.1992L29.9713 74.1993L31.6132 74.6393ZM26.3222 74.1014L30.5723 75.2403L31.0122 73.5984L26.7621 72.4595L26.3222 74.1014ZM25.7212 73.0603L25.7212 73.0603C25.7212 73.0603 25.7212 73.0603 25.7212 73.0603C25.7212 73.0603 25.7212 73.0603 25.7212 73.0604L25.7212 73.0604C25.7212 73.0604 25.7212 73.0604 25.7212 73.0604L25.7212 73.0604C25.7212 73.0604 25.7212 73.0604 25.7212 73.0604C25.7212 73.0604 25.7212 73.0604 25.7212 73.0604L25.7212 73.0604C25.7212 73.0604 25.7212 73.0604 25.7212 73.0604C25.7212 73.0604 25.7212 73.0604 25.7212 73.0604C25.7212 73.0604 25.7212 73.0604 25.7212 73.0604C25.7212 73.0604 25.7212 73.0604 25.7212 73.0604C25.7212 73.0604 25.7212 73.0604 25.7212 73.0604C25.7212 73.0604 25.7212 73.0604 25.7212 73.0604C25.7212 73.0604 25.7212 73.0604 25.7212 73.0604L25.7212 73.0605C25.7212 73.0605 25.7212 73.0605 25.7212 73.0605C25.7212 73.0605 25.7212 73.0605 25.7212 73.0605L25.7212 73.0605C25.7212 73.0605 25.7212 73.0605 25.7212 73.0605L25.7212 73.0605C25.7212 73.0605 25.7212 73.0605 25.7212 73.0605C25.7212 73.0605 25.7212 73.0605 25.7212 73.0605L25.7212 73.0605L27.3631 73.5005L27.3631 73.5005C27.3631 73.5005 27.3631 73.5005 27.3631 73.5005C27.3631 73.5005 27.3631 73.5005 27.3631 73.5004L27.3631 73.5004C27.3631 73.5004 27.3631 73.5004 27.3631 73.5004L27.3631 73.5004C27.3631 73.5004 27.3631 73.5004 27.3631 73.5004C27.3631 73.5004 27.3631 73.5004 27.3631 73.5004L27.3631 73.5004C27.3631 73.5004 27.3631 73.5004 27.3631 73.5004C27.3631 73.5004 27.3631 73.5004 27.3631 73.5004C27.3631 73.5004 27.3631 73.5004 27.3631 73.5004C27.3631 73.5004 27.3631 73.5004 27.3631 73.5004C27.3631 73.5004 27.3631 73.5004 27.3631 73.5004C27.3631 73.5004 27.3631 73.5004 27.3631 73.5004C27.3631 73.5003 27.3631 73.5003 27.3631 73.5003L27.3631 73.5003C27.3631 73.5003 27.3631 73.5003 27.3631 73.5003C27.3631 73.5003 27.3631 73.5003 27.3631 73.5003L27.3631 73.5003C27.3631 73.5003 27.3631 73.5003 27.3631 73.5003L27.3631 73.5003C27.3631 73.5003 27.3631 73.5003 27.3631 73.5003C27.3631 73.5003 27.3631 73.5003 27.3631 73.5003L27.3631 73.5003L25.7212 73.0603ZM23.2332 68.6294C25.1121 69.1329 26.245 71.1056 25.7212 73.0603L27.3631 73.5003C28.1218 70.6689 26.4886 67.7419 23.6731 66.9875L23.2332 68.6294ZM18.863 71.2227C19.3867 69.268 21.3542 68.126 23.2332 68.6294L23.6731 66.9875C20.8576 66.2331 17.9798 67.9513 17.2211 70.7827L18.863 71.2227ZM18.8629 71.2229L18.8629 71.2229C18.8629 71.2229 18.8629 71.2229 18.8629 71.2228C18.8629 71.2228 18.8629 71.2228 18.8629 71.2228L18.8629 71.2228C18.863 71.2228 18.863 71.2228 18.863 71.2228L18.863 71.2228C18.863 71.2228 18.863 71.2228 18.863 71.2228C18.863 71.2228 18.863 71.2228 18.863 71.2228L18.863 71.2228C18.863 71.2228 18.863 71.2228 18.863 71.2228C18.863 71.2228 18.863 71.2228 18.863 71.2228C18.863 71.2228 18.863 71.2228 18.863 71.2228C18.863 71.2228 18.863 71.2228 18.863 71.2228C18.863 71.2228 18.863 71.2228 18.863 71.2228C18.863 71.2227 18.863 71.2227 18.863 71.2227C18.863 71.2227 18.863 71.2227 18.863 71.2227L18.863 71.2227C18.863 71.2227 18.863 71.2227 18.863 71.2227C18.863 71.2227 18.863 71.2227 18.863 71.2227L18.863 71.2227C18.863 71.2227 18.863 71.2227 18.863 71.2227L18.863 71.2227C18.863 71.2227 18.863 71.2227 18.863 71.2227C18.863 71.2227 18.863 71.2227 18.863 71.2227L18.863 71.2227L17.2211 70.7827L17.2211 70.7827C17.2211 70.7827 17.2211 70.7827 17.2211 70.7827C17.2211 70.7827 17.2211 70.7827 17.2211 70.7827L17.2211 70.7828C17.2211 70.7828 17.2211 70.7828 17.2211 70.7828L17.2211 70.7828C17.2211 70.7828 17.2211 70.7828 17.2211 70.7828C17.2211 70.7828 17.2211 70.7828 17.2211 70.7828L17.2211 70.7828C17.2211 70.7828 17.2211 70.7828 17.2211 70.7828C17.2211 70.7828 17.2211 70.7828 17.2211 70.7828C17.2211 70.7828 17.2211 70.7828 17.2211 70.7828C17.2211 70.7828 17.2211 70.7828 17.2211 70.7828C17.221 70.7828 17.221 70.7828 17.221 70.7828C17.221 70.7828 17.221 70.7828 17.221 70.7828C17.221 70.7828 17.221 70.7828 17.221 70.7828L17.221 70.7828C17.221 70.7828 17.221 70.7828 17.221 70.7829C17.221 70.7829 17.221 70.7829 17.221 70.7829L17.221 70.7829C17.221 70.7829 17.221 70.7829 17.221 70.7829L17.221 70.7829C17.221 70.7829 17.221 70.7829 17.221 70.7829C17.221 70.7829 17.221 70.7829 17.221 70.7829L17.221 70.7829L18.8629 71.2229ZM13.5718 70.685L17.822 71.8238L18.262 70.1819L14.0118 69.0431L13.5718 70.685ZM12.9709 69.6438L12.9709 69.6441L14.6128 70.084L14.6128 70.0838L12.9709 69.6438ZM10.4829 65.2129C12.3618 65.7164 13.4947 67.6891 12.9709 69.6438L14.6128 70.0838C15.3715 67.2523 13.7383 64.3254 10.9228 63.571L10.4829 65.2129ZM6.11268 67.8062C6.63644 65.8515 8.6039 64.7095 10.4829 65.2129L10.9228 63.571C8.10727 62.8166 5.22945 64.5348 4.47077 67.3662L6.11268 67.8062ZM6.11262 67.8064L6.11268 67.8062L4.47077 67.3662L4.47071 67.3665L6.11262 67.8064ZM0.821859 67.2687L5.07169 68.4074L5.51164 66.7655L1.26181 65.6268L0.821859 67.2687ZM17.6363 1.23242L0.220878 66.2277L1.86279 66.6677L19.2782 1.67237L17.6363 1.23242ZM22.9271 1.77018L18.6772 0.631437L18.2373 2.27335L22.4871 3.41209L22.9271 1.77018ZM26.0162 7.2417C24.1373 6.73826 23.0045 4.76567 23.5281 2.81105L21.8861 2.37121C21.1277 5.20253 22.7608 8.12922 25.5763 8.88361L26.0162 7.2417ZM30.3863 4.64871C29.8625 6.60325 27.8951 7.74515 26.0162 7.2417L25.5763 8.88361C28.3917 9.638 31.2694 7.91999 32.0282 5.08877L30.3863 4.64871Z" fill="black"/>
<line x1="19.3362" y1="18.4554" x2="21.9444" y2="19.1543" stroke="black" stroke-width="1.69983" stroke-linecap="round" stroke-linejoin="round"/>
<line x1="26.9866" y1="20.5053" x2="29.5948" y2="21.2042" stroke="black" stroke-width="1.69983" stroke-linecap="round" stroke-linejoin="round"/>
<line x1="49.0869" y1="26.4271" x2="51.6951" y2="27.1259" stroke="black" stroke-width="1.69983" stroke-linecap="round" stroke-linejoin="round"/>
<line x1="41.4367" y1="24.3773" x2="44.0448" y2="25.0761" stroke="black" stroke-width="1.69983" stroke-linecap="round" stroke-linejoin="round"/>
<line x1="34.6367" y1="22.5553" x2="36.3965" y2="23.0268" stroke="black" stroke-width="1.69983" stroke-linecap="round" stroke-linejoin="round"/>
<path d="M35.2388 27.3073C34.8867 26.6975 34.107 26.4886 33.4973 26.8407L23.5606 32.5776C22.9509 32.9296 22.7419 33.7093 23.094 34.3191C23.446 34.9289 24.2257 35.1378 24.8355 34.7857L33.6681 29.6862L38.7676 38.5188C39.1196 39.1286 39.8993 39.3375 40.5091 38.9855C41.1188 38.6334 41.3278 37.8537 40.9757 37.2439L35.2388 27.3073ZM27.2389 58.6058L35.3661 28.2747L32.9033 27.6148L24.7761 57.9459L27.2389 58.6058Z" fill="black"/>
</svg>
