<svg width="64" height="86" viewBox="0 0 64 86" fill="none" xmlns="http://www.w3.org/2000/svg">
<rect x="21.2918" y="1.82557" width="42" height="74" transform="rotate(15 21.2918 1.82557)" fill="#8CAA24" stroke="black" stroke-width="2" stroke-linecap="round" stroke-linejoin="round"/>
<path d="M42.5831 52.4033C41.8511 55.1351 40.3623 57.0089 38.1166 58.0248C35.89 59.0297 32.9625 59.1187 29.3341 58.2921L28.2726 62.2539L25.8049 61.5927L26.8483 57.6988C23.6357 56.7086 21.3119 55.269 19.8769 53.3801C18.446 51.4762 17.834 48.9909 18.0409 45.9243L24.1216 46.4132C23.9514 48.1955 24.1817 49.5999 24.8126 50.6262C25.4625 51.6416 26.5597 52.437 28.104 53.0126L30.4758 44.1608C30.4386 44.1184 30.3335 44.0579 30.1605 43.9792C29.9915 43.8854 29.8768 43.8304 29.8164 43.8142C27.5211 42.6007 25.8481 41.4487 24.7977 40.3585C23.7663 39.2571 23.0668 38.0344 22.699 36.6903C22.3353 35.3311 22.3799 33.8063 22.8328 32.1159C23.5041 29.6106 24.884 27.9017 26.9726 26.9893C29.0763 26.0809 31.7969 26.0092 35.1345 26.7741L35.9474 23.7405L38.415 24.4017L37.6022 27.4353C39.5591 28.0405 41.1192 28.7983 42.2827 29.7085C43.4652 30.6077 44.3129 31.7003 44.8257 32.9862C45.3576 34.2611 45.6077 35.9538 45.576 38.0644L39.3627 37.3458C39.4882 35.9721 39.3139 34.8416 38.8399 33.9543C38.385 33.056 37.5761 32.3621 36.4132 31.8725L34.278 39.8414L34.5149 39.9534C34.9525 40.0707 36.1836 40.7888 38.2081 42.1077C40.2477 43.4307 41.6283 44.9491 42.3499 46.663C43.0756 48.3619 43.1533 50.2753 42.5831 52.4033ZM33.9698 31.1208C31.106 30.5799 29.3789 31.4112 28.7884 33.6147C28.6105 34.2788 28.5761 34.86 28.6852 35.3583C28.8094 35.8607 29.0519 36.3139 29.4128 36.718C29.7887 37.126 30.6364 37.7657 31.9559 38.6369L33.9698 31.1208ZM36.6727 50.9167C36.8749 50.1621 36.9029 49.5144 36.7566 48.9738C36.6143 48.418 36.3195 47.9185 35.8722 47.4751C35.4399 47.0357 34.4151 46.3325 32.7978 45.3653L30.5716 53.6738C33.9677 54.3411 36.0014 53.4221 36.6727 50.9167Z" fill="black"/>
</svg>
